<?xml version="1.0" standalone="no"?>
<!DOCTYPE svg PUBLIC "-//W3C//DTD SVG 20010904//EN"
 "http://www.w3.org/TR/2001/REC-SVG-20010904/DTD/svg10.dtd">
<svg version="1.0" xmlns="http://www.w3.org/2000/svg"
 width="608.000000pt" height="608.000000pt" viewBox="0 0 608.000000 608.000000"
 preserveAspectRatio="xMidYMid meet">
<metadata>
Created by potrace 1.14, written by Peter Selinger 2001-2017
</metadata>
<g transform="translate(0.000000,608.000000) scale(0.100000,-0.100000)"
fill="#000000" stroke="none">
<path d="M2985 6071 c-3 -6 -10 -9 -15 -6 -11 7 -88 -41 -112 -70 -31 -36 -50
-88 -53 -142 -3 -56 12 -123 27 -123 5 0 7 -4 4 -8 -2 -4 8 -21 22 -37 51 -56
97 -77 177 -80 130 -4 233 89 240 215 5 107 -43 193 -133 236 -44 21 -147 30
-157 15z"/>
<path d="M2520 5503 c-13 -32 -31 -76 -41 -98 -10 -22 -34 -80 -54 -130 -21
-49 -43 -103 -50 -120 -31 -68 -106 -256 -107 -265 0 -3 -6 -16 -14 -30 -7
-14 -35 -79 -62 -145 -92 -226 -114 -280 -128 -310 -8 -16 -70 -167 -139 -335
-69 -168 -129 -314 -134 -325 -27 -61 -43 -99 -75 -180 -20 -49 -41 -99 -46
-110 -5 -11 -26 -60 -46 -110 -20 -49 -43 -106 -51 -125 -8 -19 -19 -44 -24
-55 -4 -11 -31 -76 -60 -145 -28 -69 -57 -138 -64 -155 -8 -16 -30 -68 -49
-115 -18 -47 -42 -103 -51 -125 -25 -59 -84 -203 -107 -260 -11 -27 -26 -63
-33 -80 -15 -33 -148 -353 -200 -480 -58 -142 -86 -209 -100 -240 -7 -16 -50
-120 -95 -230 -45 -110 -89 -216 -97 -235 -23 -53 -28 -65 -83 -200 -28 -69
-55 -134 -60 -145 -5 -11 -43 -103 -85 -205 -72 -175 -101 -243 -174 -419 -17
-40 -31 -77 -31 -83 0 -5 22 17 48 49 153 183 332 261 532 231 152 -24 263
-143 279 -300 3 -25 21 2 50 75 19 45 39 96 47 112 7 17 29 71 49 120 40 101
48 119 63 155 6 14 28 66 48 115 20 50 42 104 49 120 8 17 46 109 85 205 39
96 75 184 80 195 5 11 25 61 45 110 40 100 47 117 65 160 8 17 15 35 16 40 5
19 64 160 74 177 5 10 10 24 10 32 0 36 12 37 734 39 388 2 708 5 711 9 3 3 7
15 8 27 1 11 5 21 9 21 4 0 8 5 8 11 0 6 6 25 14 42 41 89 45 106 34 143 -15
56 -5 172 20 225 21 46 70 109 84 109 4 0 17 8 28 17 11 10 24 18 28 17 9 -1
27 18 34 36 5 13 -73 15 -661 17 -366 1 -687 2 -712 2 l-47 1 39 98 c22 53 48
117 58 142 17 39 29 71 36 90 2 5 20 49 38 90 6 14 11 27 12 30 1 3 7 19 14
35 7 17 35 86 62 155 28 69 54 134 59 145 5 11 21 49 36 85 14 36 31 76 37 90
5 14 11 30 13 35 1 6 10 28 20 50 10 22 18 42 19 45 1 3 5 14 10 25 4 11 29
72 55 135 26 63 68 169 95 235 50 126 53 133 83 205 22 52 32 79 30 83 0 1 9
22 22 47 13 25 22 46 21 48 -1 1 6 18 14 38 8 20 12 41 8 47 -3 5 -2 7 4 4 5
-3 15 11 22 31 7 20 19 51 27 67 33 74 52 133 46 141 -4 4 -1 4 6 0 11 -7 13
-3 16 37 1 6 3 14 6 17 12 12 30 51 30 65 0 8 4 15 9 15 7 0 15 -15 25 -50 16
-56 113 -277 120 -273 5 4 6 1 2 -6 -4 -6 0 -25 8 -43 9 -17 16 -37 16 -45 0
-7 5 -13 10 -13 6 0 10 -9 10 -20 0 -18 17 -57 30 -70 3 -3 6 -15 8 -28 5 -33
28 -73 37 -64 5 4 5 2 2 -4 -4 -6 9 -49 28 -95 19 -46 35 -89 35 -96 0 -7 5
-13 10 -13 6 0 9 -3 8 -7 -4 -17 26 -82 35 -76 6 3 7 1 3 -6 -4 -6 0 -25 8
-43 9 -17 16 -35 16 -40 0 -5 9 -28 20 -50 11 -23 20 -48 20 -55 0 -8 5 -11
12 -7 6 4 8 3 4 -4 -5 -9 17 -73 62 -172 9 -19 17 -37 17 -40 4 -22 31 -80 37
-80 4 0 7 -3 6 -7 -5 -19 48 -143 59 -139 7 3 15 1 18 -5 4 -5 3 -8 -2 -7 -18
6 -15 -11 18 -94 33 -86 49 -108 49 -68 0 11 5 20 10 20 6 0 10 8 10 18 0 10
3 22 8 26 4 4 8 12 8 17 1 5 3 11 4 14 1 3 3 8 5 13 1 4 9 24 19 44 9 21 16
40 16 43 0 3 11 27 25 55 21 42 23 49 8 43 -12 -4 -11 0 5 11 12 10 22 22 22
27 0 6 9 28 19 50 11 21 14 36 8 33 -7 -3 -5 0 4 8 9 7 14 19 12 26 -3 6 1 12
7 12 7 0 10 6 7 14 -3 8 -3 16 1 18 4 2 15 20 25 41 12 26 13 36 5 32 -7 -4
-5 0 5 8 9 8 17 22 17 31 0 9 5 16 10 16 6 0 9 3 9 8 -1 4 0 10 1 15 1 4 3 10
5 15 14 50 18 62 25 62 4 0 10 10 13 23 8 37 31 92 42 99 6 4 6 8 1 8 -5 0 -3
7 4 15 6 8 9 19 5 25 -3 5 0 12 7 15 8 3 14 15 15 25 1 13 -3 18 -10 14 -7 -3
-3 2 8 11 11 9 19 21 17 26 -1 5 3 9 9 9 7 0 8 12 4 33 -12 58 -17 69 -29 64
-8 -3 -11 4 -8 24 3 18 0 29 -7 29 -7 0 -10 4 -6 9 3 5 -1 16 -9 24 -8 8 -12
17 -9 21 4 3 2 6 -4 6 -5 0 -9 10 -9 23 1 15 -4 21 -14 19 -8 -2 -12 0 -8 4 4
4 2 14 -5 22 -10 13 -9 14 2 7 8 -5 12 -4 9 1 -8 14 -35 77 -42 97 -3 11 -11
15 -17 11 -8 -4 -9 -3 -5 5 8 12 -51 173 -65 179 -4 2 -5 10 -2 18 3 8 0 14
-7 14 -6 0 -9 4 -5 9 3 5 1 12 -5 16 -5 3 -10 14 -10 24 0 10 -10 26 -22 35
-13 9 -17 14 -10 11 7 -4 12 0 12 9 0 9 -5 16 -11 16 -5 0 -8 4 -5 8 2 4 -2
21 -9 37 -30 65 -48 110 -47 118 1 4 -3 7 -9 7 -5 0 -8 4 -5 9 8 12 -24 72
-34 66 -5 -3 -12 0 -16 6 -4 8 -3 9 4 5 14 -9 16 17 3 42 -5 9 -12 25 -15 34
-3 10 -11 16 -18 14 -7 -1 -10 -1 -5 1 12 7 8 26 -13 68 -11 22 -20 45 -20 52
0 7 -5 13 -11 13 -5 0 -8 4 -5 8 3 5 -2 21 -10 36 -7 16 -14 35 -14 42 0 8 -5
14 -12 14 -6 0 -9 3 -5 6 3 4 0 19 -9 35 -8 16 -15 32 -15 36 -1 5 -4 7 -7 6
-4 -1 -8 13 -9 30 -2 18 -7 33 -13 35 -5 2 -10 12 -10 23 0 10 -5 19 -11 19
-5 0 -8 4 -5 8 2 4 -4 26 -14 47 -16 34 -18 36 -18 15 0 -88 -50 -160 -142
-203 -25 -11 -47 -22 -50 -22 -36 -9 -87 -19 -92 -17 -5 1 -8 -2 -8 -7 0 -5
-15 -9 -32 -9 -91 2 -119 -2 -112 -14 6 -10 4 -10 -7 -2 -8 5 -31 12 -53 13
-30 2 -36 0 -30 -11 6 -10 5 -11 -7 -2 -8 6 -34 12 -59 14 -82 5 -115 8 -120
11 -3 1 -9 3 -15 4 -47 7 -131 41 -171 68 -59 41 -93 97 -95 160 -1 26 -3 47
-4 47 -1 0 -12 -26 -25 -57z m1084 -181 c3 -5 -1 -9 -9 -9 -8 0 -12 4 -9 9 3
4 7 8 9 8 2 0 6 -4 9 -8z m6 -78 c0 -8 -19 -13 -24 -6 -3 5 1 9 9 9 8 0 15 -2
15 -3z m-246 -202 c3 -5 -1 -9 -9 -9 -8 0 -12 4 -9 9 3 4 7 8 9 8 2 0 6 -4 9
-8z m366 -56 c0 -3 -4 -8 -10 -11 -5 -3 -10 -1 -10 4 0 6 5 11 10 11 6 0 10
-2 10 -4z m-125 -34 c-3 -3 -11 0 -18 7 -9 10 -8 11 6 5 10 -3 15 -9 12 -12z
m139 -10 c2 -4 -5 -9 -17 -9 -17 -2 -19 0 -7 7 18 12 18 12 24 2z m26 -46 c0
-2 -8 -10 -17 -17 -16 -13 -17 -12 -4 4 13 16 21 21 21 13z m-156 -14 c2 -4
-4 -8 -14 -8 -10 0 -16 4 -14 8 3 4 9 8 14 8 5 0 11 -4 14 -8z m56 4 c0 -2 -7
-7 -16 -10 -8 -3 -12 -2 -9 4 6 10 25 14 25 6z m116 -28 c4 -7 4 -10 -1 -6 -4
4 -15 2 -24 -5 -14 -11 -14 -10 -2 6 16 20 18 21 27 5z m-221 -7 c3 -5 2 -12
-3 -15 -5 -3 -9 1 -9 9 0 17 3 19 12 6z m140 -20 c3 -5 2 -12 -3 -15 -5 -3 -9
1 -9 9 0 17 3 19 12 6z m-375 -15 c0 -2 -8 -10 -17 -17 -16 -13 -17 -12 -4 4
13 16 21 21 21 13z m436 -16 c0 -12 -4 -16 -9 -11 -5 5 -6 14 -3 20 10 15 12
14 12 -9z m48 2 c3 -5 -1 -9 -9 -9 -8 0 -15 4 -15 9 0 4 4 8 9 8 6 0 12 -4 15
-8z m-249 -41 c3 -5 2 -12 -3 -15 -5 -3 -9 1 -9 9 0 17 3 19 12 6z m156 -8
c13 -17 13 -17 -6 -3 -11 8 -22 16 -24 17 -2 2 0 3 6 3 6 0 17 -8 24 -17z
m125 -15 c3 -4 -1 -5 -10 -4 -8 1 -18 5 -22 8 -3 4 1 5 10 4 8 -1 18 -5 22 -8z
m-181 -26 c-3 -3 -11 0 -18 7 -9 10 -8 11 6 5 10 -3 15 -9 12 -12z m45 8 c0
-5 -5 -10 -11 -10 -5 0 -7 5 -4 10 3 6 8 10 11 10 2 0 4 -4 4 -10z m35 -59
c-9 -8 -36 -10 -30 -2 2 4 11 8 20 8 8 0 13 -3 10 -6z m80 -1 c3 -5 1 -10 -4
-10 -6 0 -11 5 -11 10 0 6 2 10 4 10 3 0 8 -4 11 -10z m45 0 c0 -5 -2 -10 -4
-10 -3 0 -8 5 -11 10 -3 6 -1 10 4 10 6 0 11 -4 11 -10z m-260 -14 c0 -2 -7
-7 -16 -10 -8 -3 -12 -2 -9 4 6 10 25 14 25 6z m31 -39 c-10 -9 -11 -8 -5 6 3
10 9 15 12 12 3 -3 0 -11 -7 -18z m145 11 c3 -4 -1 -5 -10 -4 -8 1 -18 5 -22
8 -3 4 1 5 10 4 8 -1 18 -5 22 -8z m59 -47 c3 -5 2 -12 -3 -15 -5 -3 -9 1 -9
9 0 17 3 19 12 6z m-35 -5 c0 -2 -7 -7 -16 -10 -8 -3 -12 -2 -9 4 6 10 25 14
25 6z m111 -13 c13 -16 12 -17 -3 -4 -17 13 -22 21 -14 21 2 0 10 -8 17 -17z
m-176 -2 c3 -5 2 -12 -3 -15 -5 -3 -9 1 -9 9 0 17 3 19 12 6z m102 -36 c0 -8
-4 -12 -9 -9 -5 3 -6 10 -3 15 9 13 12 11 12 -6z m38 5 c3 -5 1 -10 -4 -10 -6
0 -11 5 -11 10 0 6 2 10 4 10 3 0 8 -4 11 -10z m49 -2 c-3 -4 -9 -8 -15 -8 -5
0 -9 4 -9 8 0 5 7 9 15 9 8 0 12 -4 9 -9z m-204 -12 c0 -3 -4 -8 -10 -11 -5
-3 -10 -1 -10 4 0 6 5 11 10 11 6 0 10 -2 10 -4z m56 -8 c3 -4 -1 -5 -10 -4
-8 1 -18 5 -22 8 -3 4 1 5 10 4 8 -1 18 -5 22 -8z m19 -37 c-9 -8 -36 -10 -30
-2 2 4 11 8 20 8 8 0 13 -3 10 -6z m-278 -54 c0 -8 -6 -14 -14 -14 -9 0 -10 4
-2 14 6 7 12 13 14 13 1 0 2 -6 2 -13z m233 -23 c0 -8 -19 -13 -24 -6 -3 5 1
9 9 9 8 0 15 -2 15 -3z m80 0 c0 -8 -19 -13 -24 -6 -3 5 1 9 9 9 8 0 15 -2 15
-3z m30 -4 c0 -5 -5 -10 -11 -10 -5 0 -7 5 -4 10 3 6 8 10 11 10 2 0 4 -4 4
-10z m-265 -28 c-3 -3 -11 0 -18 7 -9 10 -8 11 6 5 10 -3 15 -9 12 -12z m220
-1 c3 -5 2 -12 -3 -15 -5 -3 -9 1 -9 9 0 17 3 19 12 6z m40 -11 c3 -5 1 -10
-4 -10 -6 0 -11 5 -11 10 0 6 2 10 4 10 3 0 8 -4 11 -10z m163 -25 c-3 -3 -9
2 -12 12 -6 14 -5 15 5 6 7 -7 10 -15 7 -18z m-253 5 c-3 -5 -12 -10 -18 -10
-7 0 -6 4 3 10 19 12 23 12 15 0z m-65 -40 c0 -5 -2 -10 -4 -10 -3 0 -8 5 -11
10 -3 6 -1 10 4 10 6 0 11 -4 11 -10z m120 -20 c0 -5 -2 -10 -4 -10 -3 0 -8 5
-11 10 -3 6 -1 10 4 10 6 0 11 -4 11 -10z m-120 -20 c0 -5 -5 -10 -11 -10 -5
0 -7 5 -4 10 3 6 8 10 11 10 2 0 4 -4 4 -10z m-105 -48 c-3 -3 -11 0 -18 7 -9
10 -8 11 6 5 10 -3 15 -9 12 -12z m285 8 c0 -5 -2 -10 -4 -10 -3 0 -8 5 -11
10 -3 6 -1 10 4 10 6 0 11 -4 11 -10z m-60 -20 c0 -5 -5 -10 -11 -10 -5 0 -7
5 -4 10 3 6 8 10 11 10 2 0 4 -4 4 -10z m220 -4 c0 -2 -8 -10 -17 -17 -16 -13
-17 -12 -4 4 13 16 21 21 21 13z m-264 -38 c3 -4 -1 -5 -10 -4 -8 1 -18 5 -22
8 -3 4 1 5 10 4 8 -1 18 -5 22 -8z m84 2 c0 -5 -5 -10 -11 -10 -5 0 -7 5 -4
10 3 6 8 10 11 10 2 0 4 -4 4 -10z m40 0 c0 -5 -5 -10 -11 -10 -5 0 -7 5 -4
10 3 6 8 10 11 10 2 0 4 -4 4 -10z m135 -28 c-3 -3 -11 0 -18 7 -9 10 -8 11 6
5 10 -3 15 -9 12 -12z m59 2 c3 -8 2 -12 -4 -9 -6 3 -10 10 -10 16 0 14 7 11
14 -7z m-419 -42 c-3 -3 -11 0 -18 7 -9 10 -8 11 6 5 10 -3 15 -9 12 -12z m54
4 c9 -11 9 -16 -1 -22 -7 -4 -10 -4 -6 1 4 4 3 14 -3 22 -6 7 -9 13 -6 13 2 0
10 -6 16 -14z m361 8 c0 -8 -19 -13 -24 -6 -3 5 1 9 9 9 8 0 15 -2 15 -3z m30
-18 c0 -3 -4 -8 -10 -11 -5 -3 -10 -1 -10 4 0 6 5 11 10 11 6 0 10 -2 10 -4z
m-40 -22 c0 -8 -19 -13 -24 -6 -3 5 1 9 9 9 8 0 15 -2 15 -3z m-376 -22 c3 -5
-1 -9 -9 -9 -8 0 -12 4 -9 9 3 4 7 8 9 8 2 0 6 -4 9 -8z m72 -4 c3 -4 -1 -5
-10 -4 -8 1 -18 5 -22 8 -3 4 1 5 10 4 8 -1 18 -5 22 -8z m-221 -7 c3 -5 2
-12 -3 -15 -5 -3 -9 1 -9 9 0 17 3 19 12 6z m546 -8 c13 -16 12 -17 -3 -4 -17
13 -22 21 -14 21 2 0 10 -8 17 -17z m-285 -19 c1 -9 0 -13 -4 -10 -3 4 -7 14
-8 22 -1 9 0 13 4 10 3 -4 7 -14 8 -22z m324 16 c0 -5 -2 -10 -4 -10 -3 0 -8
5 -11 10 -3 6 -1 10 4 10 6 0 11 -4 11 -10z m-356 -18 c3 -5 -1 -9 -9 -9 -8 0
-12 4 -9 9 3 4 7 8 9 8 2 0 6 -4 9 -8z m296 -2 c0 -5 -2 -10 -4 -10 -3 0 -8 5
-11 10 -3 6 -1 10 4 10 6 0 11 -4 11 -10z m60 -21 c0 -5 -4 -9 -8 -9 -5 0 -9
7 -9 15 0 8 4 12 9 9 4 -3 8 -9 8 -15z m-260 1 c0 -5 -2 -10 -4 -10 -3 0 -8 5
-11 10 -3 6 -1 10 4 10 6 0 11 -4 11 -10z m125 1 c-9 -8 -36 -10 -30 -2 2 4
11 8 20 8 8 0 13 -3 10 -6z m-125 -42 c0 -5 -4 -9 -8 -9 -5 0 -9 7 -9 15 0 8
4 12 9 9 4 -3 8 -9 8 -15z m121 4 c13 -16 12 -17 -3 -4 -17 13 -22 21 -14 21
2 0 10 -8 17 -17z m32 2 c-3 -9 -8 -14 -10 -11 -3 3 -2 9 2 15 9 16 15 13 8
-4z m-602 -12 c13 -16 12 -17 -3 -4 -17 13 -22 21 -14 21 2 0 10 -8 17 -17z
m680 -6 c-10 -9 -11 -8 -5 6 3 10 9 15 12 12 3 -3 0 -11 -7 -18z m-357 -13 c3
-8 2 -12 -4 -9 -6 3 -10 10 -10 16 0 14 7 11 14 -7z m86 11 c0 -7 -30 -13 -34
-7 -3 4 4 9 15 9 10 1 19 0 19 -2z m100 -5 c0 -5 -2 -10 -4 -10 -3 0 -8 5 -11
10 -3 6 -1 10 4 10 6 0 11 -4 11 -10z m-285 -28 c-3 -3 -11 0 -18 7 -9 10 -8
11 6 5 10 -3 15 -9 12 -12z m160 -1 c3 -5 2 -12 -3 -15 -5 -3 -9 1 -9 9 0 17
3 19 12 6z m285 -33 c0 -4 -4 -8 -9 -8 -6 0 -12 4 -15 8 -3 5 1 9 9 9 8 0 15
-4 15 -9z m-364 -23 c-1 -8 -5 -17 -8 -21 -5 -4 -4 16 1 34 3 9 9 -1 7 -13z
m40 0 c-1 -8 -5 -17 -8 -21 -5 -4 -4 16 1 34 3 9 9 -1 7 -13z m237 -10 c-3 -9
-8 -14 -10 -11 -3 3 -2 9 2 15 9 16 15 13 8 -4z m45 -10 c-3 -3 -9 2 -12 12
-6 14 -5 15 5 6 7 -7 10 -15 7 -18z m-198 -15 c0 -5 -5 -10 -11 -10 -5 0 -7 5
-4 10 3 6 8 10 11 10 2 0 4 -4 4 -10z m-302 -25 c-3 -3 -9 2 -12 12 -6 14 -5
15 5 6 7 -7 10 -15 7 -18z m476 -5 c-6 -6 -10 -3 -10 10 0 13 4 16 10 10 7 -7
7 -13 0 -20z m41 2 c-3 -3 -11 0 -18 7 -9 10 -8 11 6 5 10 -3 15 -9 12 -12z
m-280 -11 c-9 -8 -36 -10 -30 -2 2 4 11 8 20 8 8 0 13 -3 10 -6z m60 -1 c3 -5
1 -10 -4 -10 -6 0 -11 5 -11 10 0 6 2 10 4 10 3 0 8 -4 11 -10z m-118 -75 c0
-8 -4 -12 -9 -9 -5 3 -6 10 -3 15 9 13 12 11 12 -6z m-99 -50 c-3 -3 -9 2 -12
12 -6 14 -5 15 5 6 7 -7 10 -15 7 -18z m182 11 c0 -3 -4 -8 -10 -11 -5 -3 -10
-1 -10 4 0 6 5 11 10 11 6 0 10 -2 10 -4z m-189 -59 c-10 -9 -11 -8 -5 6 3 10
9 15 12 12 3 -3 0 -11 -7 -18z m186 1 c2 -17 0 -19 -7 -8 -5 8 -6 18 -4 22 8
12 10 10 11 -14z m63 -2 c0 -3 -4 -8 -10 -11 -5 -3 -10 -1 -10 4 0 6 5 11 10
11 6 0 10 -2 10 -4z m60 -26 c0 -5 -5 -10 -11 -10 -5 0 -7 5 -4 10 3 6 8 10
11 10 2 0 4 -4 4 -10z m-144 -20 c0 -12 -4 -16 -9 -11 -5 5 -6 14 -3 20 10 15
12 14 12 -9z m119 0 c3 -5 1 -10 -4 -10 -6 0 -11 5 -11 10 0 6 2 10 4 10 3 0
8 -4 11 -10z m-139 -45 c-1 -8 -5 -17 -8 -21 -5 -4 -4 16 1 34 3 9 9 -1 7 -13z
m40 -11 c1 -9 0 -13 -4 -10 -3 4 -7 14 -8 22 -1 9 0 13 4 10 3 -4 7 -14 8 -22z
m59 16 c3 -5 1 -10 -4 -10 -6 0 -11 5 -11 10 0 6 2 10 4 10 3 0 8 -4 11 -10z
m49 2 c3 -5 -1 -9 -9 -9 -8 0 -15 4 -15 9 0 4 4 8 9 8 6 0 12 -4 15 -8z m-4
-26 c0 -2 -8 -10 -17 -17 -16 -13 -17 -12 -4 4 13 16 21 21 21 13z m-205 -36
c3 -5 1 -10 -4 -10 -6 0 -11 5 -11 10 0 6 2 10 4 10 3 0 8 -4 11 -10z m101
-16 c1 -9 0 -13 -4 -10 -3 4 -7 14 -8 22 -1 9 0 13 4 10 3 -4 7 -14 8 -22z
m108 18 c3 -5 -1 -9 -9 -9 -8 0 -12 4 -9 9 3 4 7 8 9 8 2 0 6 -4 9 -8z m-184
-56 c0 -2 -7 -7 -16 -10 -8 -3 -12 -2 -9 4 6 10 25 14 25 6z m140 -46 c0 -5
-5 -10 -11 -10 -5 0 -7 5 -4 10 3 6 8 10 11 10 2 0 4 -4 4 -10z m-84 -22 c3
-4 -1 -5 -10 -4 -8 1 -18 5 -22 8 -3 4 1 5 10 4 8 -1 18 -5 22 -8z m-16 -34
c0 -8 -19 -13 -24 -6 -3 5 1 9 9 9 8 0 15 -2 15 -3z m-43 -39 c0 -8 -4 -12 -9
-9 -5 3 -6 10 -3 15 9 13 12 11 12 -6z m103 -19 c0 -2 -7 -7 -16 -10 -8 -3
-12 -2 -9 4 6 10 25 14 25 6z m-64 -42 c1 -9 0 -13 -4 -10 -3 4 -7 14 -8 22
-1 9 0 13 4 10 3 -4 7 -14 8 -22z m24 -44 c0 -5 -2 -10 -4 -10 -3 0 -8 5 -11
10 -3 6 -1 10 4 10 6 0 11 -4 11 -10z m-66 -58 c3 -5 -1 -9 -9 -9 -8 0 -12 4
-9 9 3 4 7 8 9 8 2 0 6 -4 9 -8z m30 -40 c3 -5 -1 -9 -9 -9 -8 0 -12 4 -9 9 3
4 7 8 9 8 2 0 6 -4 9 -8z m-444 -766 c0 -2 -8 -10 -17 -17 -16 -13 -17 -12 -4
4 13 16 21 21 21 13z"/>
<path d="M4622 2920 c3 -8 -2 -21 -9 -29 -8 -8 -12 -22 -10 -33 3 -10 2 -16
-3 -13 -8 5 -27 -36 -32 -70 -2 -11 -9 -26 -16 -34 -7 -7 -11 -20 -8 -28 3 -8
2 -12 -3 -9 -8 5 -16 -11 -26 -50 -2 -7 -15 -39 -30 -72 -15 -33 -28 -72 -29
-85 0 -14 -4 -23 -8 -21 -7 4 -34 -65 -30 -78 1 -5 -2 -8 -8 -8 -18 0 -11 -30
8 -31 49 -3 123 -1 136 4 8 3 17 1 20 -6 3 -9 5 -9 5 0 1 8 10 9 29 4 40 -11
110 -5 129 10 9 8 14 9 10 3 -4 -7 0 -14 8 -18 8 -3 15 -1 15 4 0 5 7 7 15 4
8 -4 23 0 32 7 10 8 14 9 10 2 -4 -6 -3 -14 2 -17 5 -4 12 -2 16 4 4 6 10 8
15 5 5 -3 1 11 -9 32 -11 21 -22 46 -25 56 -3 9 -10 17 -16 17 -6 0 -9 -4 -6
-8 3 -5 -1 -9 -9 -9 -11 0 -12 4 -4 14 6 7 8 13 4 13 -4 0 -2 6 4 13 13 17 2
31 -14 17 -8 -7 -12 -5 -12 5 0 8 4 12 9 9 14 -9 9 15 -12 55 -10 21 -16 41
-13 45 4 3 1 6 -6 6 -8 0 -11 7 -7 15 3 8 1 15 -4 15 -6 0 -10 9 -10 20 0 11
-4 20 -8 20 -4 0 -9 10 -9 22 -1 13 -7 24 -13 26 -5 2 -10 13 -10 24 0 18 -2
19 -17 7 -16 -12 -16 -11 0 8 12 13 14 22 7 25 -6 2 -13 12 -14 23 -2 11 -8
19 -12 18 -5 -1 -9 12 -10 28 -1 17 -7 36 -14 42 -10 9 -12 9 -8 -3z m5 -45
c0 -8 -4 -12 -9 -9 -5 3 -6 10 -3 15 9 13 12 11 12 -6z m23 -75 c0 -5 -5 -10
-11 -10 -5 0 -7 5 -4 10 3 6 8 10 11 10 2 0 4 -4 4 -10z m-60 -64 c0 -2 -8
-10 -17 -17 -16 -13 -17 -12 -4 4 13 16 21 21 21 13z m57 -13 c-4 -3 -2 -11 3
-18 7 -8 6 -12 -3 -12 -7 0 -14 9 -14 19 -1 10 3 18 9 18 6 0 8 -3 5 -7z m55
-38 c2 3 5 -2 5 -10 0 -19 0 -19 -23 7 -12 14 -13 18 -3 10 9 -6 18 -10 21 -7z
m-21 -32 c13 -16 12 -17 -3 -4 -10 7 -18 15 -18 17 0 8 8 3 21 -13z m-20 -20
c13 -16 12 -17 -3 -4 -15 11 -21 11 -35 0 -16 -13 -17 -12 -4 4 7 9 17 17 21
17 4 0 14 -8 21 -17z m40 -6 c-10 -9 -11 -8 -5 6 3 10 9 15 12 12 3 -3 0 -11
-7 -18z m-137 -13 c3 -8 2 -12 -4 -9 -6 3 -10 10 -10 16 0 14 7 11 14 -7z m44
-25 c9 -12 9 -16 -1 -16 -7 0 -14 9 -14 20 -1 11 -1 18 0 16 2 -2 8 -11 15
-20z m83 8 c-6 -8 -9 -16 -6 -19 3 -2 -2 -5 -10 -5 -13 0 -13 3 2 19 19 21 31
25 14 5z m-162 -81 c-3 -3 -11 5 -18 17 -13 21 -12 21 5 5 10 -10 16 -20 13
-22z m79 15 c-7 -9 -13 -18 -15 -20 -1 -2 -1 5 0 16 0 11 7 20 14 20 10 0 10
-4 1 -16z m77 11 c-3 -3 0 -11 6 -19 17 -20 5 -16 -14 5 -15 16 -15 19 -2 19
8 0 13 -3 10 -5z m-199 -17 c-1 -8 -5 -17 -8 -21 -5 -4 -4 16 1 34 3 9 9 -1 7
-13z m175 -12 c13 -17 13 -17 -6 -3 -11 8 -22 16 -24 17 -2 2 0 3 6 3 6 0 17
-8 24 -17z m-87 -11 c3 -5 -1 -9 -9 -9 -8 0 -15 4 -15 9 0 4 4 8 9 8 6 0 12
-4 15 -8z m-68 -22 c0 -12 -4 -16 -9 -11 -5 5 -6 14 -3 20 10 15 12 14 12 -9z
m146 6 c10 6 11 4 0 -7 -10 -11 -15 -10 -30 6 -15 17 -15 18 0 6 9 -7 23 -9
30 -5z m56 -11 c-3 -3 -9 2 -12 12 -6 14 -5 15 5 6 7 -7 10 -15 7 -18z m72 9
c0 -8 -19 -13 -24 -6 -3 5 1 9 9 9 8 0 15 -2 15 -3z m-214 -28 c0 -14 -3 -23
-7 -20 -6 3 -6 22 0 42 3 10 7 -2 7 -22z m124 20 c0 -2 -8 -10 -17 -17 -16
-13 -17 -12 -4 4 13 16 21 21 21 13z m-76 -14 c2 -4 -4 -8 -14 -8 -10 0 -16 4
-14 8 3 4 9 8 14 8 5 0 11 -4 14 -8z m-129 -14 c5 4 5 1 1 -6 -6 -10 -11 -10
-22 -1 -8 6 -14 14 -14 16 0 3 6 0 13 -6 8 -6 18 -7 22 -3z m222 -3 c0 -8 -3
-13 -5 -10 -3 3 -12 -1 -21 -7 -10 -8 -9 -4 3 10 23 26 23 26 23 7z m63 12 c0
-2 -8 -11 -18 -20 -15 -14 -19 -15 -19 -2 0 8 4 12 8 9 4 -2 10 0 14 6 6 10
15 14 15 7z m-249 -44 c13 -16 12 -17 -3 -4 -17 13 -22 21 -14 21 2 0 10 -8
17 -17z m246 -1 c-17 -18 -51 -27 -41 -10 3 5 9 6 14 3 4 -3 13 2 20 10 7 8
15 15 18 15 3 0 -2 -8 -11 -18z m-186 -19 c13 -16 12 -17 -3 -4 -17 13 -22 21
-14 21 2 0 10 -8 17 -17z m109 -8 c14 -19 14 -19 -2 -6 -10 7 -18 18 -18 24 0
6 1 8 3 6 1 -2 9 -13 17 -24z m144 14 c-2 -4 -12 -6 -22 -4 -9 1 -24 -3 -32
-9 -13 -9 -13 -8 -3 5 12 14 66 22 57 8z m-374 -14 c0 -2 -6 -8 -13 -14 -10
-8 -14 -7 -14 2 0 8 6 14 14 14 7 0 13 -1 13 -2z"/>
<path d="M4289 1679 c-2 -25 3 -44 13 -50 5 -3 9 -9 9 -13 -4 -28 1 -38 15
-32 14 5 15 4 5 -8 -9 -11 -9 -17 2 -28 7 -7 12 -19 9 -26 -2 -6 1 -12 8 -12
6 0 9 -4 6 -9 -8 -12 19 -62 29 -53 4 4 4 -3 1 -15 -5 -15 -1 -28 13 -42 13
-13 16 -21 8 -25 -7 -2 -3 -5 8 -5 15 -1 17 -3 7 -10 -12 -7 -12 -12 0 -32 7
-13 15 -26 18 -29 3 -3 7 -14 8 -25 2 -11 8 -23 14 -26 5 -3 9 -9 8 -13 -2 -5
2 -21 14 -56 1 -3 7 -15 14 -26 6 -12 8 -24 5 -28 -3 -3 0 -6 7 -6 7 0 11 -3
7 -6 -3 -4 1 -21 10 -38 9 -17 18 -37 19 -44 5 -27 14 -43 23 -38 4 3 7 -6 5
-19 -1 -14 2 -25 7 -25 5 0 9 -11 9 -24 0 -14 8 -32 18 -42 9 -10 16 -20 14
-23 -2 -3 -1 -14 2 -25 3 -12 9 -15 18 -10 10 6 10 4 -1 -9 -9 -12 -10 -17 -2
-17 7 0 9 -4 6 -10 -3 -6 -2 -10 3 -10 6 0 9 -8 8 -17 0 -10 4 -17 11 -16 7 2
10 -4 7 -12 -6 -16 16 -75 28 -75 5 0 7 -3 7 -7 -4 -22 2 -33 14 -27 9 6 9 5
0 -7 -7 -9 -9 -20 -4 -25 4 -5 18 -37 31 -71 12 -35 27 -63 32 -63 5 0 7 -3 4
-8 -7 -12 22 -72 35 -72 8 0 8 -4 -1 -15 -9 -10 -9 -15 -1 -15 6 0 11 -9 11
-19 0 -11 4 -22 9 -25 4 -3 11 -19 15 -36 3 -17 10 -29 15 -26 5 3 7 -3 4 -14
-3 -11 0 -20 6 -20 6 0 10 -6 8 -12 -1 -7 4 -12 12 -10 12 3 12 0 2 -12 -8
-10 -9 -16 -1 -21 5 -3 10 -14 10 -24 0 -10 7 -24 15 -31 8 -7 13 -16 10 -20
-6 -10 4 -40 14 -40 3 0 5 19 4 42 0 24 4 49 10 57 10 12 9 14 -4 9 -12 -5
-10 6 12 45 15 28 25 55 22 61 -3 5 -1 6 5 2 7 -4 17 3 23 18 7 14 16 23 20
20 5 -3 9 0 9 6 0 6 3 9 8 7 4 -3 13 1 19 9 8 8 9 15 3 19 -6 3 -10 12 -10 18
0 7 5 4 11 -6 8 -14 18 -16 47 -11 20 4 43 7 50 7 6 0 12 4 12 8 0 4 12 5 28
2 15 -3 41 -6 57 -7 17 0 36 -5 43 -9 7 -5 12 -3 12 5 0 9 3 9 10 -2 7 -11 10
-12 10 -2 0 10 4 10 16 -2 13 -14 34 -19 60 -15 4 0 10 -5 14 -11 4 -7 19 -13
33 -13 14 -1 23 -5 21 -9 -2 -4 5 -9 16 -13 10 -3 48 -26 84 -50 42 -29 71
-43 83 -39 15 5 16 4 3 -6 -11 -9 -12 -13 -2 -17 7 -2 19 -11 26 -19 8 -8 20
-12 28 -11 7 2 10 2 6 0 -5 -3 -8 -10 -8 -16 0 -5 3 -8 6 -4 3 3 29 -18 56
-46 28 -29 44 -41 36 -27 -7 14 -15 27 -18 30 -3 3 -7 14 -8 25 -2 11 -8 22
-13 23 -5 2 -7 8 -3 13 3 5 1 9 -3 9 -5 0 -9 10 -10 22 -1 11 -6 24 -11 27 -5
3 -13 21 -17 39 -4 20 -13 32 -23 32 -13 0 -14 2 -3 9 11 7 10 13 -4 34 -16
24 -22 45 -24 75 -1 6 -9 12 -18 12 -14 0 -15 2 -5 9 10 6 10 10 -2 21 -9 7
-14 16 -11 20 2 4 -5 27 -17 51 -12 24 -21 48 -20 52 1 5 -4 20 -12 35 -9 15
-25 51 -37 79 -12 29 -26 53 -31 53 -5 0 -6 4 -3 10 3 5 -3 29 -14 53 -11 23
-23 55 -26 70 -4 15 -10 27 -14 27 -4 0 -8 10 -8 22 -1 13 -7 24 -13 26 -5 2
-10 13 -10 23 0 11 -4 18 -9 15 -5 -3 -9 0 -8 7 1 45 -4 57 -25 58 -21 0 -21
1 -4 8 16 6 17 8 4 13 -9 4 -22 1 -29 -5 -11 -10 -11 -9 0 5 7 10 18 15 25 11
6 -4 5 1 -3 10 -7 9 -10 17 -5 17 5 0 0 7 -10 15 -14 11 -16 15 -5 15 8 1 3 7
-11 16 -14 8 -17 13 -7 10 17 -5 17 -4 3 22 -9 15 -21 41 -28 57 -6 17 -12 32
-14 35 -1 3 -5 15 -9 27 -4 13 -11 21 -15 18 -4 -3 -8 1 -7 8 1 34 -5 47 -20
48 -10 0 -13 3 -6 5 14 6 -1 59 -25 87 -8 9 -12 17 -8 17 3 0 -1 17 -10 38 -9
20 -17 42 -18 47 -1 6 -12 26 -26 45 -13 18 -19 30 -12 26 8 -5 10 -2 6 8 -3
9 -11 13 -17 9 -6 -3 -7 -1 -3 6 4 6 0 24 -10 38 -16 25 -17 26 -30 8 -13 -18
-14 -18 -14 -1 0 17 -1 17 -17 -1 -10 -10 -14 -13 -9 -6 5 7 5 13 0 14 -37 4
-94 3 -116 -3 -16 -4 -28 -3 -28 0 0 16 -70 5 -92 -14 -18 -15 -20 -15 -9 -1
7 9 10 17 5 18 -36 4 -94 3 -121 -2 -21 -5 -33 -3 -33 4 0 6 -7 2 -15 -9 -10
-12 -14 -14 -13 -5 2 11 -11 15 -60 15 -35 1 -66 -3 -69 -8 -3 -4 -9 -2 -14 5
-6 9 -9 10 -9 2 0 -8 -9 -9 -27 -5 -48 12 -108 7 -105 -9 2 -10 -2 -9 -11 3
-9 11 -18 14 -27 8 -9 -5 -19 -5 -27 2 -10 8 -13 7 -14 -3z m115 -25 c3 -8 2
-12 -4 -9 -6 3 -10 10 -10 16 0 14 7 11 14 -7z m326 12 c0 -2 -7 -7 -16 -10
-8 -3 -12 -2 -9 4 6 10 25 14 25 6z m35 -4 c-3 -3 0 -11 6 -19 17 -20 5 -16
-14 5 -15 16 -15 19 -2 19 8 0 13 -3 10 -5z m40 -10 c-3 -3 -11 0 -18 7 -9 10
-8 11 6 5 10 -3 15 -9 12 -12z m124 -16 c-3 -3 -11 5 -18 17 -13 21 -12 21 5
5 10 -10 16 -20 13 -22z m41 30 c0 -2 -7 -7 -16 -10 -8 -3 -12 -2 -9 4 6 10
25 14 25 6z m43 -13 c-4 -10 -9 -11 -19 -2 -18 15 -18 15 5 15 11 0 17 -5 14
-13z m31 8 c3 -4 -4 -17 -17 -27 -22 -19 -22 -19 -4 2 9 11 14 24 10 27 -3 4
-4 7 0 7 3 0 8 -4 11 -9z m-354 -4 c0 -2 -8 -11 -18 -20 -15 -14 -19 -15 -19
-2 0 8 4 12 8 9 4 -2 10 0 14 6 6 10 15 14 15 7z m177 -16 c-1 -15 -4 -17 -14
-9 -15 12 -17 22 -3 13 6 -3 10 -1 10 4 0 6 2 11 4 11 3 0 4 -9 3 -19z m-497
5 c0 -3 -4 -8 -10 -11 -5 -3 -10 -1 -10 4 0 6 5 11 10 11 6 0 10 -2 10 -4z
m77 -14 c0 -10 -6 -19 -13 -19 -9 0 -9 5 -1 19 7 10 13 18 14 18 1 0 1 -8 0
-18z m123 14 c0 -2 -7 -7 -16 -10 -8 -3 -12 -2 -9 4 6 10 25 14 25 6z m171
-13 c13 -16 12 -17 -3 -4 -17 13 -22 21 -14 21 2 0 10 -8 17 -17z m364 8 c-9
-8 -36 -10 -30 -2 2 4 11 8 20 8 8 0 13 -3 10 -6z m-695 -15 c0 -2 -7 -7 -16
-10 -8 -3 -12 -2 -9 4 6 10 25 14 25 6z m191 -13 c13 -16 12 -17 -3 -4 -17 13
-22 21 -14 21 2 0 10 -8 17 -17z m120 0 c13 -16 12 -17 -3 -4 -17 13 -22 21
-14 21 2 0 10 -8 17 -17z m120 0 c13 -16 12 -17 -3 -4 -17 13 -22 21 -14 21 2
0 10 -8 17 -17z m105 -13 c0 -12 -4 -16 -9 -11 -5 5 -6 14 -3 20 10 15 12 14
12 -9z m-180 -26 c1 -9 -1 -13 -4 -9 -4 4 -7 10 -7 13 0 4 -4 14 -9 22 -7 12
-6 13 4 3 8 -7 15 -20 16 -29z m55 19 c13 -16 12 -17 -3 -4 -17 13 -22 21 -14
21 2 0 10 -8 17 -17z m66 -15 c0 -15 -3 -28 -7 -28 -5 0 -7 8 -5 18 1 9 -1 22
-6 28 -5 6 -4 11 4 11 7 0 13 -13 14 -29z m123 24 c0 -5 -7 -9 -15 -9 -8 0
-12 4 -9 9 3 4 9 8 15 8 5 0 9 -4 9 -8z m114 -8 c3 -8 2 -12 -4 -9 -6 3 -10
10 -10 16 0 14 7 11 14 -7z m-719 -22 c-3 -3 -11 0 -18 7 -9 10 -8 11 6 5 10
-3 15 -9 12 -12z m42 -5 c1 -11 1 -18 0 -16 -2 2 -8 11 -15 20 -9 12 -9 16 1
16 7 0 14 -9 14 -20z m234 6 c13 -16 12 -17 -3 -4 -17 13 -22 21 -14 21 2 0
10 -8 17 -17z m141 -8 c3 3 13 -5 24 -17 19 -23 19 -23 -2 -5 -11 9 -23 15
-26 12 -3 -3 -13 5 -24 17 -19 23 -19 23 2 5 11 -9 23 -15 26 -12z m168 11 c0
-2 -8 -10 -17 -17 -16 -13 -17 -12 -4 4 13 16 21 21 21 13z m117 -18 c0 -13
-1 -17 -4 -10 -3 6 -10 9 -16 5 -7 -4 -6 1 2 10 17 21 17 21 18 -5z m-743 4
c3 -5 -1 -9 -9 -9 -8 0 -12 4 -9 9 3 4 7 8 9 8 2 0 6 -4 9 -8z m163 -10 c0
-10 -6 -19 -13 -19 -9 0 -9 5 -1 19 7 10 13 18 14 18 1 0 1 -8 0 -18z m100 1
c0 -10 -4 -10 -16 -1 -9 7 -18 13 -20 15 -2 1 5 1 16 0 11 0 20 -7 20 -14z
m289 -11 c-17 -16 -18 -16 -5 5 7 12 15 20 18 17 3 -2 -3 -12 -13 -22z m134
18 c0 -5 -5 -10 -11 -10 -5 0 -7 5 -4 10 3 6 8 10 11 10 2 0 4 -4 4 -10z
m-647 -15 c-3 -9 -8 -14 -10 -11 -3 3 -2 9 2 15 9 16 15 13 8 -4z m605 2 c8
-10 6 -13 -11 -14 -12 0 -16 1 -9 4 6 3 10 9 6 14 -8 14 2 11 14 -4z m-523 -7
c3 -5 1 -10 -4 -10 -6 0 -11 5 -11 10 0 6 2 10 4 10 3 0 8 -4 11 -10z m206 -3
c-6 -8 -9 -17 -6 -20 3 -4 2 -5 -2 -2 -3 3 -13 -1 -22 -7 -9 -7 -5 0 8 15 25
27 43 39 22 14z m486 7 c-3 -3 -12 -4 -19 -1 -8 3 -5 6 6 6 11 1 17 -2 13 -5z
m-729 -29 c-3 -3 -9 2 -12 12 -6 14 -5 15 5 6 7 -7 10 -15 7 -18z m383 8 c13
-16 12 -17 -3 -4 -17 13 -22 21 -14 21 2 0 10 -8 17 -17z m112 2 c-3 -9 -8
-14 -10 -11 -3 3 -2 9 2 15 9 16 15 13 8 -4z m-293 -1 c0 -8 -19 -13 -24 -6
-3 5 1 9 9 9 8 0 15 -2 15 -3z m-85 -32 c-3 -3 -11 0 -18 7 -9 10 -8 11 6 5
10 -3 15 -9 12 -12z m49 10 c2 -4 -4 -8 -14 -8 -10 0 -16 4 -14 8 3 4 9 8 14
8 5 0 11 -4 14 -8z m116 4 c0 -2 -7 -7 -16 -10 -8 -3 -12 -2 -9 4 6 10 25 14
25 6z m35 -4 c-3 -3 0 -11 6 -19 17 -20 5 -16 -14 5 -15 16 -15 19 -2 19 8 0
13 -3 10 -5z m51 -4 c3 -4 -1 -5 -10 -4 -8 1 -18 5 -22 8 -3 4 1 5 10 4 8 -1
18 -5 22 -8z m164 6 c0 -8 -19 -13 -24 -6 -3 5 1 9 9 9 8 0 15 -2 15 -3z
m-290 -7 c0 -2 -8 -11 -18 -20 -15 -14 -19 -15 -19 -2 0 8 4 12 8 9 4 -2 10 0
14 6 6 10 15 14 15 7z m206 -16 c-13 -15 -14 -20 -4 -24 7 -3 3 -4 -9 -4 -15
1 -19 5 -13 13 6 6 6 15 2 19 -4 5 -2 5 5 1 6 -3 14 -2 18 4 3 5 9 10 12 10 3
0 -2 -9 -11 -19z m68 -10 c-2 -3 -12 3 -22 13 -16 17 -16 18 5 5 12 -7 20 -15
17 -18z m143 7 c0 -13 -1 -17 -4 -10 -3 6 -10 9 -16 5 -7 -4 -6 1 2 10 17 21
17 21 18 -5z m42 8 c9 -10 8 -15 -2 -19 -8 -3 -13 3 -13 14 0 23 0 23 15 5z
m57 5 c-4 -5 0 -12 6 -14 8 -3 6 -6 -4 -6 -18 -1 -24 10 -11 22 9 10 15 8 9
-2z m-756 -16 c0 -2 -9 -3 -19 -2 -11 0 -18 5 -15 9 4 6 34 0 34 -7z m35 -5
c10 -11 16 -20 13 -20 -3 0 -13 9 -23 20 -10 11 -16 20 -13 20 3 0 13 -9 23
-20z m256 3 c13 -16 12 -17 -3 -4 -17 13 -22 21 -14 21 2 0 10 -8 17 -17z
m246 -5 c-3 -8 -6 -5 -6 6 -1 11 2 17 5 13 3 -3 4 -12 1 -19z m83 18 c0 -2 -7
-7 -16 -10 -8 -3 -12 -2 -9 4 6 10 25 14 25 6z m-141 -19 c8 -10 7 -14 -2 -14
-8 0 -14 6 -14 14 0 7 1 13 2 13 2 0 8 -6 14 -13z m-187 -22 c3 3 13 -5 24
-17 19 -23 19 -23 -1 -7 -11 9 -28 15 -38 14 -11 -2 -16 -1 -13 2 3 4 0 13 -6
22 -10 12 -7 12 8 -2 11 -9 23 -15 26 -12z m360 0 c2 3 5 -2 5 -10 0 -12 -3
-12 -16 -2 -12 10 -14 9 -9 -4 4 -9 1 -16 -7 -16 -10 0 -11 5 -5 17 6 11 5 22
-3 31 -7 7 -3 6 9 -4 11 -9 23 -15 26 -12z m-516 0 c-1 -8 -5 -17 -8 -21 -5
-4 -4 16 1 34 3 9 9 -1 7 -13z m217 2 c4 3 7 1 7 -5 0 -17 -16 -15 -31 6 -12
15 -12 16 2 5 9 -7 19 -10 22 -6z m179 -2 c2 3 5 -2 5 -10 0 -19 0 -19 -23 7
-12 14 -13 18 -3 10 9 -6 18 -10 21 -7z m-315 -10 c0 -8 -4 -12 -9 -9 -5 3 -6
10 -3 15 9 13 12 11 12 -6z m503 -9 c12 -19 12 -20 -3 -8 -9 8 -20 11 -25 8
-5 -3 -9 1 -9 8 0 20 23 15 37 -8z m-243 -13 c0 -9 -4 -10 -14 -2 -7 6 -13 12
-13 14 0 1 6 2 13 2 8 0 14 -6 14 -14z m38 -1 c-3 -3 -11 0 -18 7 -9 10 -8 11
6 5 10 -3 15 -9 12 -12z m280 8 c3 -5 1 -10 -4 -10 -6 0 -11 5 -11 10 0 6 2
10 4 10 3 0 8 -4 11 -10z m-489 -22 c12 -14 13 -18 3 -10 -9 6 -18 10 -21 7
-2 -3 -5 2 -5 10 0 19 0 19 23 -7z m101 4 c-10 -10 -15 -21 -12 -24 3 -3 -5
-13 -17 -24 l-23 -19 19 23 c11 12 15 22 11 22 -4 0 0 9 10 20 10 11 20 20 23
20 3 0 -2 -8 -11 -18z m-418 -6 c9 -11 9 -16 -1 -22 -7 -4 -10 -4 -6 1 4 4 3
14 -3 22 -6 7 -9 13 -6 13 2 0 10 -6 16 -14z m108 -3 c0 -10 -4 -10 -16 -1 -9
7 -18 13 -20 15 -2 1 5 1 16 0 11 0 20 -7 20 -14z m140 -7 c18 -21 18 -21 -3
-3 -11 9 -23 14 -26 11 -3 -3 -8 -1 -12 4 -11 18 25 8 41 -12z m294 1 c-10 -9
-11 -8 -5 6 3 10 9 15 12 12 3 -3 0 -11 -7 -18z m-21 9 c0 -2 -7 -7 -16 -10
-8 -3 -12 -2 -9 4 6 10 25 14 25 6z m288 -9 c8 -10 6 -13 -7 -13 -11 0 -17 6
-14 13 3 7 6 13 8 13 1 0 7 -6 13 -13z m-753 -6 c-9 -8 -36 -10 -30 -2 2 4 11
8 20 8 8 0 13 -3 10 -6z m315 -5 c-7 -7 -13 -7 -20 0 -6 6 -3 10 10 10 13 0
16 -4 10 -10z m74 6 c3 -5 -1 -9 -9 -9 -8 0 -12 4 -9 9 3 4 7 8 9 8 2 0 6 -4
9 -8z m-296 -27 c-3 -3 -9 2 -12 12 -6 14 -5 15 5 6 7 -7 10 -15 7 -18z m158
-1 c1 -9 0 -13 -4 -10 -3 4 -7 14 -8 22 -1 9 0 13 4 10 3 -4 7 -14 8 -22z
m188 4 c-4 -5 -9 -7 -12 -4 -3 3 -12 0 -21 -7 -14 -10 -14 -10 -4 4 13 16 46
23 37 7z m46 7 c0 -1 -10 -10 -22 -21 -14 -12 -18 -13 -10 -3 6 9 10 18 7 21
-3 2 2 5 10 5 8 0 15 -1 15 -2z m99 -13 c7 -13 6 -19 -2 -19 -7 0 -13 9 -13
19 0 10 1 18 3 18 1 0 7 -8 12 -18z m-32 -7 c0 -8 -10 -23 -21 -32 -21 -18
-21 -18 -2 5 14 16 16 22 5 22 -11 0 -11 2 1 10 8 5 15 10 16 10 0 0 1 -7 1
-15z m-392 -4 c-9 -8 -36 -10 -30 -2 2 4 11 8 20 8 8 0 13 -3 10 -6z m29 0 c3
-4 -4 -17 -17 -27 -22 -19 -22 -19 -4 2 9 11 14 24 10 27 -3 4 -4 7 0 7 3 0 8
-4 11 -9z m323 -8 c0 -9 -4 -10 -14 -2 -7 6 -13 12 -13 14 0 1 6 2 13 2 8 0
14 -6 14 -14z m-429 -2 c16 12 16 12 0 -6 -18 -19 -18 -19 -35 0 -17 18 -17
18 0 6 14 -11 20 -11 35 0z m213 -8 c13 -16 12 -17 -3 -4 -17 13 -22 21 -14
21 2 0 10 -8 17 -17z m94 -48 c1 -30 -1 -52 -4 -49 -3 3 -6 30 -6 59 -1 30 1
52 4 49 3 -3 6 -30 6 -59z m-122 37 c15 -16 15 -19 2 -19 -8 0 -13 3 -10 5 3
3 0 11 -6 19 -17 20 -5 16 14 -5z m87 -7 c14 -19 14 -19 -2 -6 -10 7 -18 18
-18 24 0 6 1 8 3 6 1 -2 9 -13 17 -24z m277 -3 c-1 -16 -7 -29 -14 -29 -7 0
-9 5 -5 11 7 11 8 16 11 36 3 22 9 8 8 -18z m153 22 c0 -8 -19 -13 -24 -6 -3
5 1 9 9 9 8 0 15 -2 15 -3z m-77 -27 c-4 -6 0 -8 8 -5 10 4 15 -1 16 -16 0
-11 -1 -15 -4 -8 -4 10 -8 10 -21 0 -13 -11 -14 -11 -8 0 4 7 3 19 -3 26 -8 9
-7 13 4 13 8 0 11 -5 8 -10z m-600 -12 c15 1 30 -1 32 -5 8 -13 -65 -4 -77 10
-11 12 -10 12 2 4 8 -6 28 -10 43 -9z m223 -11 c1 -9 0 -13 -4 -10 -3 4 -7 14
-8 22 -1 9 0 13 4 10 3 -4 7 -14 8 -22z m119 17 c3 -5 2 -12 -3 -15 -5 -3 -9
1 -9 9 0 17 3 19 12 6z m121 -17 c1 -9 0 -13 -4 -10 -3 4 -7 14 -8 22 -1 9 0
13 4 10 3 -4 7 -14 8 -22z m-51 7 c-9 -8 -36 -10 -30 -2 2 4 11 8 20 8 8 0 13
-3 10 -6z m-45 -5 c0 -2 -8 -10 -17 -17 -16 -13 -17 -12 -4 4 13 16 21 21 21
13z m-475 -15 c-9 -8 -36 -10 -30 -2 2 4 11 8 20 8 8 0 13 -3 10 -6z m156 -4
c-6 -8 -9 -17 -6 -20 3 -4 2 -5 -2 -2 -3 3 -13 -1 -22 -7 -9 -7 -5 0 8 15 25
27 43 39 22 14z m49 8 c0 -1 -10 -10 -22 -21 -14 -12 -18 -13 -10 -3 6 9 10
18 7 21 -3 2 2 5 10 5 8 0 15 -1 15 -2z m65 -3 c-3 -3 0 -11 6 -19 17 -20 5
-16 -14 5 -15 16 -15 19 -2 19 8 0 13 -3 10 -5z m34 -6 c9 -11 9 -16 -1 -22
-7 -4 -10 -4 -6 1 4 4 3 14 -3 22 -6 7 -9 13 -6 13 2 0 10 -6 16 -14z m130
-20 c-3 -3 -11 5 -18 17 -13 21 -12 21 5 5 10 -10 16 -20 13 -22z m51 9 c-6
-8 -8 -20 -4 -27 5 -10 4 -10 -6 -1 -11 10 -11 15 0 28 7 8 15 15 17 15 3 0 0
-7 -7 -15z m126 -4 c0 -16 -3 -17 -14 -9 -12 10 -7 19 13 28 1 0 1 -9 1 -19z
m174 4 c0 -2 -6 -5 -13 -8 -8 -3 -14 1 -14 8 0 7 6 11 14 8 7 -3 13 -6 13 -8z
m-746 -3 c3 -5 -1 -9 -9 -9 -8 0 -12 4 -9 9 3 4 7 8 9 8 2 0 6 -4 9 -8z m207
-9 c13 -16 12 -17 -3 -5 -9 8 -23 10 -29 6 -8 -4 -9 -3 -5 4 10 17 21 15 37
-5z m264 -2 c3 -5 2 -12 -3 -15 -5 -3 -9 1 -9 9 0 17 3 19 12 6z m168 -18 c-3
-7 -6 -13 -8 -13 -2 0 -5 6 -8 13 -3 8 1 14 8 14 7 0 11 -6 8 -14z m117 13 c0
-2 -7 -7 -16 -10 -8 -3 -12 -2 -9 4 6 10 25 14 25 6z m30 -16 c6 -11 7 -20 2
-20 -6 0 -12 9 -15 20 -3 11 -3 20 -1 20 2 0 8 -9 14 -20z m-663 -8 c-10 -10
-16 -21 -15 -23 2 -2 1 -3 -1 -1 -3 1 -6 9 -7 17 -1 8 2 13 6 10 5 -3 11 -1
15 5 3 5 9 10 12 10 3 0 -1 -8 -10 -18z m75 3 c9 2 25 -7 35 -18 18 -22 18
-22 -2 -6 -11 9 -28 15 -37 14 -9 -2 -23 4 -30 13 -11 15 -11 15 2 6 8 -6 23
-10 32 -9z m72 -14 c-2 -3 -12 3 -22 13 -16 17 -16 18 5 5 12 -7 20 -15 17
-18z m62 14 c-1 -8 -5 -17 -8 -21 -5 -4 -4 16 1 34 3 9 9 -1 7 -13z m84 11 c0
-2 -8 -10 -17 -17 -16 -13 -17 -12 -4 4 13 16 21 21 21 13z m116 -16 c0 -12
-4 -16 -9 -11 -5 5 -6 14 -3 20 10 15 12 14 12 -9z m-456 -15 c14 -19 14 -19
-2 -6 -10 7 -18 18 -18 24 0 6 1 8 3 6 1 -2 9 -13 17 -24z m645 15 c3 -6 -1
-7 -9 -4 -18 7 -21 14 -7 14 6 0 13 -4 16 -10z m-725 -4 c0 -2 -8 -10 -17 -17
-16 -13 -17 -12 -4 4 13 16 21 21 21 13z m444 -18 c-3 -5 -2 -15 3 -21 4 -7 1
-5 -8 5 -9 9 -20 14 -24 10 -5 -4 -5 -2 -2 4 3 6 13 11 21 11 8 0 13 -4 10 -9z
m46 7 c0 -2 -6 -8 -13 -14 -10 -8 -14 -7 -14 2 0 8 6 14 14 14 7 0 13 -1 13
-2z m225 -28 c1 -15 -5 -33 -13 -40 -13 -10 -14 -9 -7 3 13 20 13 53 0 63 -6
5 -4 7 5 5 8 -3 15 -16 15 -31z m-641 -6 c-2 -3 -12 3 -22 13 -16 17 -16 18 5
5 12 -7 20 -15 17 -18z m152 7 c12 -14 13 -18 3 -10 -9 6 -18 10 -21 7 -2 -3
-5 2 -5 10 0 19 0 19 23 -7z m74 18 c0 -2 -8 -10 -17 -17 -16 -13 -17 -12 -4
4 13 16 21 21 21 13z m276 -15 c0 -11 -5 -17 -13 -14 -10 4 -11 9 -2 19 15 18
15 18 15 -5z m-255 -4 c-6 -8 -9 -16 -6 -19 3 -2 -2 -5 -10 -5 -13 0 -13 3 2
19 19 21 31 25 14 5z m72 -5 c15 -16 15 -19 2 -19 -8 0 -13 3 -10 5 3 3 0 11
-6 19 -17 20 -5 16 14 -5z m281 9 c-7 -8 -74 -9 -69 -1 2 3 19 6 39 6 19 0 33
-3 30 -5z m-673 -18 c13 -16 12 -17 -3 -4 -10 7 -18 15 -18 17 0 8 8 3 21 -13z
m160 0 c13 -16 12 -17 -3 -4 -10 7 -18 15 -18 17 0 8 8 3 21 -13z m596 2 c0
-8 -4 -12 -9 -9 -5 3 -6 10 -3 15 9 13 12 11 12 -6z m-482 -13 c-3 -3 -11 0
-18 7 -9 10 -8 11 6 5 10 -3 15 -9 12 -12z m89 10 c2 -4 -4 -8 -14 -8 -10 0
-16 4 -14 8 3 4 9 8 14 8 5 0 11 -4 14 -8z m-148 -28 c1 -9 0 -13 -4 -10 -3 4
-7 14 -8 22 -1 9 0 13 4 10 3 -4 7 -14 8 -22z m239 14 c5 4 5 1 1 -6 -6 -10
-11 -10 -22 -1 -8 6 -14 14 -14 16 0 3 6 0 13 -6 8 -6 18 -7 22 -3z m85 8 c0
-2 -8 -10 -17 -17 -16 -13 -17 -12 -4 4 13 16 21 21 21 13z m64 -18 c-5 -7 -9
-19 -10 -26 -2 -8 -5 -17 -8 -20 -8 -7 -2 27 9 51 4 10 10 16 12 13 3 -3 1
-11 -3 -18z m-494 1 c12 -9 12 -10 -4 -5 -11 4 -27 -1 -40 -11 l-21 -18 19 23
c22 25 25 26 46 11z m465 2 c-9 -8 -36 -10 -30 -2 2 4 11 8 20 8 8 0 13 -3 10
-6z m171 -3 c4 -7 3 -8 -4 -4 -7 4 -12 2 -12 -5 0 -7 -3 -10 -6 -6 -6 5 3 27
11 27 2 0 7 -5 11 -12z m59 2 c-3 -5 -12 -10 -18 -10 -7 0 -6 4 3 10 19 12 23
12 15 0z m-641 -18 c2 -4 -4 -8 -14 -8 -10 0 -16 4 -14 8 3 4 9 8 14 8 5 0 11
-4 14 -8z m233 1 c-4 -3 -1 -13 6 -22 11 -14 10 -14 -5 -2 -16 12 -16 31 -1
31 4 0 3 -3 0 -7z m38 -11 c-3 -3 -11 0 -18 7 -9 10 -8 11 6 5 10 -3 15 -9 12
-12z m-401 -21 c-2 -3 -12 3 -22 13 -16 17 -16 18 5 5 12 -7 20 -15 17 -18z
m234 6 c17 -18 19 -24 7 -24 -8 0 -13 3 -10 5 3 3 -2 14 -12 24 -24 27 -10 22
15 -5z m46 -6 c-2 -3 -12 3 -22 13 -16 17 -16 18 5 5 12 -7 20 -15 17 -18z
m216 25 c0 -2 -7 -7 -16 -10 -8 -3 -12 -2 -9 4 6 10 25 14 25 6z m167 -10 c0
-9 -6 -12 -16 -8 -14 5 -14 3 -2 -11 20 -25 7 -21 -15 5 -10 12 -14 19 -9 15
6 -3 17 -2 25 4 8 5 15 9 16 9 0 0 1 -6 1 -14z m60 -1 c0 -8 -4 -12 -9 -9 -5
3 -6 10 -3 15 9 13 12 11 12 -6z m-524 -13 c15 -16 15 -19 2 -19 -8 0 -13 3
-10 5 3 3 0 11 -6 19 -17 20 -5 16 14 -5z m261 2 c3 -8 2 -12 -4 -9 -6 3 -10
10 -10 16 0 14 7 11 14 -7z m141 7 c-9 -8 -36 -10 -30 -2 2 4 11 8 20 8 8 0
13 -3 10 -6z m142 -13 c-3 -8 -6 -5 -6 6 -1 11 2 17 5 13 3 -3 4 -12 1 -19z
m63 7 c0 -1 -8 -5 -18 -7 -11 -3 -19 0 -19 7 0 7 8 10 19 7 10 -2 18 -6 18 -7z
m-680 1 c0 -2 -8 -10 -17 -17 -16 -13 -17 -12 -4 4 13 16 21 21 21 13z m205
-15 c-9 -8 -36 -10 -30 -2 2 4 11 8 20 8 8 0 13 -3 10 -6z m273 -11 c-7 -10
-14 -17 -17 -15 -4 4 18 35 25 35 2 0 -1 -9 -8 -20z m-462 -5 c-1 -8 -5 -17
-8 -21 -5 -4 -4 16 1 34 3 9 9 -1 7 -13z m268 1 c10 4 16 1 16 -7 0 -7 -3 -9
-7 -6 -3 4 -15 -1 -26 -10 -11 -10 -17 -12 -13 -5 4 7 2 21 -6 30 -11 15 -11
16 3 4 9 -7 24 -10 33 -6z m163 -8 c-3 -8 -6 -5 -6 6 -1 11 2 17 5 13 3 -3 4
-12 1 -19z m-211 0 c4 -7 4 -10 -1 -6 -4 4 -15 2 -24 -5 -14 -11 -14 -10 -2 6
16 20 18 21 27 5z m344 0 c0 -11 -12 -10 -30 2 -12 7 -10 9 8 7 12 0 22 -5 22
-9z m-540 -23 c-10 -12 -10 -18 1 -32 12 -17 12 -17 -6 -1 -15 14 -16 20 -5
32 7 9 15 16 17 16 3 0 0 -7 -7 -15z m38 -4 c-7 -9 -13 -18 -15 -20 -1 -2 -1
5 0 16 0 11 7 20 14 20 10 0 10 -4 1 -16z m283 1 c-7 -2 -18 1 -23 6 -8 8 -4
9 13 5 13 -4 18 -8 10 -11z m162 1 c-4 -10 -2 -14 4 -10 5 3 10 0 10 -8 0 -10
-4 -12 -12 -5 -7 5 -15 7 -18 3 -4 -3 -7 -2 -7 3 0 9 20 34 27 34 1 0 -1 -7
-4 -17z m-588 -5 c5 4 5 1 1 -6 -6 -10 -11 -10 -22 -1 -8 6 -14 14 -14 16 0 3
6 0 13 -6 8 -6 18 -7 22 -3z m305 9 c0 -2 -8 -11 -18 -20 -15 -14 -19 -15 -19
-2 0 8 4 12 8 9 4 -2 10 0 14 6 6 10 15 14 15 7z m230 -12 c0 -1 -6 -7 -13
-13 -10 -8 -13 -6 -13 7 0 11 6 17 13 14 7 -3 13 -6 13 -8z m186 -4 c-6 -10
-43 -7 -55 4 -3 4 7 4 22 1 16 -3 27 0 27 6 0 6 3 9 6 5 3 -3 3 -10 0 -16z
m-498 -15 c16 -20 16 -20 -2 -6 -24 19 -47 21 -66 7 -13 -10 -13 -10 -2 5 17
22 48 19 70 -6z m170 -1 c-3 -3 -9 2 -12 12 -6 14 -5 15 5 6 7 -7 10 -15 7
-18z m349 5 c-2 -11 -9 -26 -17 -33 -10 -10 -11 -9 -4 3 9 15 10 20 13 40 0 6
3 10 6 10 3 0 3 -9 2 -20z m-307 -4 c0 -2 -8 -10 -17 -17 -16 -13 -17 -12 -4
4 13 16 21 21 21 13z m234 -8 c-3 -4 -13 -12 -23 -17 -13 -7 -18 -6 -18 4 0 7
7 11 15 7 9 -3 13 -1 9 5 -3 5 0 10 8 10 8 0 12 -4 9 -9z m119 -8 c-6 -22 -18
-26 -29 -8 -4 6 -3 8 3 5 6 -4 13 0 17 8 8 22 15 18 9 -5z m-790 -5 c-3 -9 -8
-14 -10 -11 -3 3 -2 9 2 15 9 16 15 13 8 -4z m83 -11 c1 -9 0 -13 -4 -10 -3 4
-7 14 -8 22 -1 9 0 13 4 10 3 -4 7 -14 8 -22z m139 -12 c-3 -3 3 -15 12 -26
18 -21 18 -21 -5 -2 -12 11 -20 21 -17 24 3 3 -3 15 -12 26 -18 21 -18 21 5 2
12 -11 20 -21 17 -24z m46 21 c13 -16 12 -17 -3 -4 -10 7 -18 15 -18 17 0 8 8
3 21 -13z m57 -8 c-3 -3 -9 2 -12 12 -6 14 -5 15 5 6 7 -7 10 -15 7 -18z
m-301 8 c-4 -3 -1 -13 6 -22 11 -14 10 -14 -5 -2 -16 12 -16 31 -1 31 4 0 3
-3 0 -7z m377 -9 c3 -8 2 -12 -4 -9 -6 3 -10 10 -10 16 0 14 7 11 14 -7z m65
-18 c-3 -3 -11 5 -18 17 -13 21 -12 21 5 5 10 -10 16 -20 13 -22z m230 20 c9
-11 9 -16 0 -22 -8 -5 -9 -3 -4 6 6 10 4 12 -8 7 -11 -4 -14 -2 -10 9 6 17 8
17 22 0z m-438 -23 c13 -16 12 -17 -3 -4 -10 7 -18 15 -18 17 0 8 8 3 21 -13z
m324 -1 c-3 -3 -11 0 -18 7 -9 10 -8 11 6 5 10 -3 15 -9 12 -12z m-581 -22
c-6 -6 -10 -3 -10 10 0 13 4 16 10 10 7 -7 7 -13 0 -20z m323 17 c0 -8 -6 -14
-14 -14 -9 0 -10 4 -2 14 6 7 12 13 14 13 1 0 2 -6 2 -13z m107 -8 c-10 -12
-18 -24 -17 -28 1 -3 -1 -8 -4 -11 -4 -3 -3 1 1 8 4 6 2 12 -5 12 -6 0 -1 9
12 20 31 25 37 25 13 -1z m96 17 c0 -2 -8 -10 -17 -17 -16 -13 -17 -12 -4 4
13 16 21 21 21 13z m97 -2 c-3 -3 -12 -4 -19 -1 -8 3 -5 6 6 6 11 1 17 -2 13
-5z m140 -9 c0 -8 -5 -11 -10 -8 -6 4 -8 0 -4 -9 4 -12 1 -14 -16 -10 -12 3
-16 7 -9 10 7 2 9 9 6 14 -4 6 -2 8 4 4 6 -3 13 -2 17 4 9 14 12 13 12 -5z
m48 -3 c-3 -3 -11 0 -18 7 -9 10 -8 11 6 5 10 -3 15 -9 12 -12z m-269 -7 c-1
-8 -5 -17 -8 -21 -5 -4 -4 16 1 34 3 9 9 -1 7 -13z m124 -17 c0 -19 -16 -5
-17 14 -2 18 0 20 7 8 5 -8 10 -18 10 -22z m-202 9 c8 -10 6 -13 -11 -14 -12
0 -16 1 -9 4 6 3 10 9 6 14 -8 14 2 11 14 -4z m-437 -10 c-6 -8 -8 -16 -5 -19
3 -3 1 -9 -4 -12 -6 -3 -9 0 -8 6 2 16 15 38 23 38 3 0 0 -6 -6 -13z m267 -18
c-3 -8 -7 -3 -11 10 -4 17 -3 21 5 13 5 -5 8 -16 6 -23z m329 25 c-3 -3 -12
-4 -19 -1 -8 3 -5 6 6 6 11 1 17 -2 13 -5z m-301 -24 c0 -12 -4 -16 -9 -11 -5
5 -6 14 -3 20 10 15 12 14 12 -9z m186 13 c-6 -2 -10 -9 -6 -14 3 -5 0 -9 -5
-9 -12 0 -14 13 -4 23 3 4 11 7 17 6 6 0 5 -3 -2 -6z m-247 -12 c-3 -2 1 -11
7 -20 12 -15 11 -15 -7 0 -11 9 -33 15 -48 14 -15 -1 -29 1 -32 4 -2 4 16 7
40 7 24 0 42 -2 40 -5z m515 -1 c-8 -5 -19 -10 -25 -10 -5 0 -3 5 5 10 8 5 20
10 25 10 6 0 3 -5 -5 -10z m-638 -17 c-1 -4 7 -17 16 -28 17 -20 17 -20 -4 -2
-11 9 -21 24 -21 32 0 8 2 13 5 11 2 -2 4 -8 4 -13z m698 13 c0 -2 -7 -7 -16
-10 -8 -3 -12 -2 -9 4 6 10 25 14 25 6z m-724 -18 c3 -4 -1 -5 -10 -4 -8 1
-18 5 -22 8 -3 4 1 5 10 4 8 -1 18 -5 22 -8z m269 -6 c-3 -3 -11 0 -18 7 -9
10 -8 11 6 5 10 -3 15 -9 12 -12z m50 9 c-9 -8 -36 -10 -30 -2 2 4 11 8 20 8
8 0 13 -3 10 -6z m170 -16 c11 0 25 3 30 7 6 4 11 -2 11 -12 0 -13 -5 -16 -16
-11 -20 10 -51 8 -70 -4 -13 -7 -13 -6 -2 8 8 9 11 22 7 29 -4 7 -1 6 7 -2 7
-9 22 -15 33 -15z m-555 11 c0 -2 -6 -9 -14 -15 -11 -9 -16 -9 -22 0 -4 7 -3
9 4 5 6 -3 13 -2 17 4 6 10 15 14 15 6z m177 -41 c0 -8 -4 -12 -9 -9 -5 4 -7
9 -4 12 3 3 -2 15 -11 26 -18 21 -18 21 3 3 11 -9 21 -24 21 -32z m483 22 c0
-6 -3 -7 -7 -4 -3 4 -11 3 -17 -3 -8 -6 -12 -3 -12 9 0 12 6 17 18 13 10 -2
18 -9 18 -15z m-629 -4 c13 -16 12 -17 -3 -4 -10 7 -18 15 -18 17 0 8 8 3 21
-13z m265 -21 c0 -24 -6 -39 -13 -39 -8 0 -9 5 -4 11 4 6 7 23 6 39 -1 15 1
27 5 27 4 0 7 -17 6 -38z m99 18 c3 -6 -1 -7 -9 -4 -18 7 -21 14 -7 14 6 0 13
-4 16 -10z m69 -8 c2 -4 -4 -8 -14 -8 -10 0 -16 4 -14 8 3 4 9 8 14 8 5 0 11
-4 14 -8z m232 -22 c1 -16 -2 -30 -6 -30 -5 0 -6 44 -1 58 4 8 6 -2 7 -28z
m-190 -2 c19 -22 19 -22 0 -8 -18 13 -19 13 -14 -1 4 -9 1 -16 -7 -16 -10 0
-11 5 -5 17 5 10 6 20 3 24 -3 3 -4 6 -1 6 3 0 13 -10 24 -22z m311 16 c-3 -3
-12 -4 -19 -1 -8 3 -5 6 6 6 11 1 17 -2 13 -5z m-463 -20 c3 -9 2 -12 -5 -9
-5 4 -18 1 -27 -6 -13 -11 -12 -8 2 9 23 26 22 26 30 6z m37 -7 c-10 -9 -11
-8 -5 6 3 10 9 15 12 12 3 -3 0 -11 -7 -18z m231 5 c3 -12 -1 -18 -12 -18 -14
0 -15 4 -6 18 6 10 11 18 12 18 1 0 4 -8 6 -18z m-406 -18 c1 -9 0 -13 -4 -10
-3 4 -7 14 -8 22 -1 9 0 13 4 10 3 -4 7 -14 8 -22z m208 10 c3 -8 2 -12 -4 -9
-6 3 -10 10 -10 16 0 14 7 11 14 -7z m354 -5 c-12 -8 -4 -13 15 -10 5 1 6 -3
2 -9 -4 -6 -13 -5 -26 3 -10 6 -15 13 -9 15 6 2 8 8 5 13 -4 5 1 6 10 2 13 -5
14 -7 3 -14z m-763 3 c-3 -3 0 -10 5 -17 7 -8 5 -12 -5 -12 -8 0 -13 3 -10 5
3 3 0 10 -5 17 -7 8 -5 12 5 12 8 0 13 -3 10 -5z m40 0 c-3 -3 3 -15 12 -26
14 -15 14 -18 2 -8 -9 6 -20 8 -25 4 -5 -4 -6 -3 -2 2 4 5 3 14 -2 21 -7 8 -5
12 5 12 8 0 13 -3 10 -5z m204 -26 c-3 -3 -11 5 -18 17 -13 21 -12 21 5 5 10
-10 16 -20 13 -22z m-124 15 c3 -5 2 -12 -3 -15 -5 -3 -9 1 -9 9 0 17 3 19 12
6z m225 -7 c0 -8 -19 -13 -24 -6 -3 5 1 9 9 9 8 0 15 -2 15 -3z m224 -2 c3 -5
-1 -9 -9 -9 -8 0 -12 4 -9 9 3 4 7 8 9 8 2 0 6 -4 9 -8z m266 -6 c0 -2 -7 -7
-16 -10 -8 -3 -12 -2 -9 4 6 10 25 14 25 6z m-716 -45 c-2 -3 -12 3 -22 13
-16 17 -16 18 5 5 12 -7 20 -15 17 -18z m62 14 c-1 -8 -5 -17 -8 -21 -5 -4 -4
16 1 34 3 9 9 -1 7 -13z m84 11 c0 -2 -8 -10 -17 -17 -16 -13 -17 -12 -4 4 13
16 21 21 21 13z m267 -18 c-3 -8 -6 -5 -6 6 -1 11 2 17 5 13 3 -3 4 -12 1 -19z
m28 -15 c-1 -21 4 -42 9 -46 7 -5 5 -7 -4 -4 -14 3 -23 59 -13 80 8 14 9 7 8
-30z m-478 3 c18 -21 18 -21 -3 -3 -11 9 -23 14 -26 11 -3 -3 -8 -1 -12 4 -11
18 25 8 41 -12z m133 9 c11 -13 10 -14 -4 -9 -9 3 -16 10 -16 15 0 13 6 11 20
-6z m247 1 c0 -8 -8 -11 -21 -8 -19 5 -19 6 0 13 10 4 19 8 20 8 0 1 1 -5 1
-13z m203 8 c0 -8 -19 -13 -24 -6 -3 5 1 9 9 9 8 0 15 -2 15 -3z m140 2 c0 -3
-4 -8 -10 -11 -5 -3 -10 -1 -10 4 0 6 5 11 10 11 6 0 10 -2 10 -4z m-516 -24
c2 -4 -4 -8 -14 -8 -10 0 -16 4 -14 8 3 4 9 8 14 8 5 0 11 -4 14 -8z m86 2 c0
-8 -19 -13 -24 -6 -3 5 1 9 9 9 8 0 15 -2 15 -3z m230 2 c0 -2 -7 -7 -16 -10
-8 -3 -12 -2 -9 4 6 10 25 14 25 6z m155 -5 c3 -5 2 -12 -3 -15 -5 -3 -9 1 -9
9 0 17 3 19 12 6z m85 -26 c0 -5 -5 -3 -10 5 -5 8 -10 20 -10 25 0 6 5 3 10
-5 5 -8 10 -19 10 -25z m-766 -4 c-2 -3 -12 3 -22 13 -16 17 -16 18 5 5 12 -7
20 -15 17 -18z m66 25 c0 -2 -8 -10 -17 -17 -16 -13 -17 -12 -4 4 13 16 21 21
21 13z m201 -13 c13 -16 12 -17 -3 -4 -17 13 -22 21 -14 21 2 0 10 -8 17 -17z
m99 2 c0 -1 -8 -5 -18 -7 -11 -3 -19 0 -19 7 0 7 8 10 19 7 10 -2 18 -6 18 -7z
m177 1 c0 -8 -6 -12 -15 -8 -10 3 -13 1 -8 -6 3 -6 2 -13 -3 -16 -5 -4 -8 1
-7 10 2 12 21 32 32 34 0 0 1 -6 1 -14z m58 -16 c-3 -4 0 -11 5 -13 6 -3 5 -4
-2 -2 -7 1 -12 8 -10 15 2 7 -3 10 -11 7 -7 -3 -14 1 -14 8 0 10 5 11 19 4 10
-6 16 -14 13 -19z m-514 7 c-6 -8 -9 -16 -6 -19 3 -2 -2 -5 -10 -5 -13 0 -13
3 2 19 19 21 31 25 14 5z m72 -5 c15 -16 15 -19 2 -19 -8 0 -13 3 -10 5 3 3 0
11 -6 19 -17 20 -5 16 14 -5z m218 -5 c-10 -9 -11 -8 -5 6 3 10 9 15 12 12 3
-3 0 -11 -7 -18z m43 7 c3 -8 2 -12 -4 -9 -6 3 -10 10 -10 16 0 14 7 11 14 -7z
m-178 -3 c-4 -5 0 -11 6 -14 7 -3 3 -4 -9 -4 -17 1 -19 4 -11 14 12 15 22 18
14 4z m-112 -9 c2 -4 -4 -8 -14 -8 -10 0 -16 4 -14 8 3 4 9 8 14 8 5 0 11 -4
14 -8z m-108 -17 c-1 -8 -5 -17 -8 -21 -5 -4 -4 16 1 34 3 9 9 -1 7 -13z m180
-2 c-2 -9 -9 -19 -17 -21 -11 -3 -11 -1 1 7 8 6 11 11 7 11 -5 0 -5 5 -2 10 9
15 14 12 11 -7z m102 1 c8 -2 17 -5 20 -8 3 -4 -4 -5 -16 -3 -12 2 -28 9 -35
17 -10 10 -9 11 3 4 8 -5 21 -9 28 -10z m462 -26 c0 -5 -5 -8 -11 -8 -5 0 -8
4 -4 9 3 5 1 12 -5 16 -5 3 -10 11 -10 18 0 12 29 -23 30 -35z m-360 24 c0 -4
-9 -8 -20 -9 -11 -1 -20 2 -20 5 0 4 9 8 20 9 11 1 20 -2 20 -5z m157 -7 c0
-8 -4 -12 -9 -9 -4 3 -8 9 -8 15 0 5 4 9 8 9 5 0 9 -7 9 -15z m103 3 c0 -6 -3
-8 -7 -5 -3 4 -13 1 -22 -6 -14 -11 -14 -10 -2 6 15 20 31 22 31 5z m-503 -25
c0 -9 -4 -10 -14 -2 -7 6 -13 12 -13 14 0 1 6 2 13 2 8 0 14 -6 14 -14z m324
-3 c-5 -8 -6 -21 -4 -27 3 -7 0 -13 -5 -13 -6 0 -9 8 -7 18 1 9 -1 22 -6 27
-5 7 -1 11 11 11 13 0 16 -5 11 -16z m121 1 c-4 -10 -1 -12 8 -6 9 5 11 4 6
-4 -4 -6 -12 -9 -17 -5 -5 3 -16 1 -23 -5 -9 -8 -13 -7 -13 4 0 8 5 11 10 8 6
-4 8 0 5 8 -4 10 1 15 12 15 11 0 16 -5 12 -15z m-515 -9 c-10 -10 -15 -21
-12 -24 3 -3 -5 -13 -17 -24 l-23 -19 19 23 c11 12 15 22 11 22 -4 0 0 9 10
20 10 11 20 20 23 20 3 0 -2 -8 -11 -18z m211 -7 c-3 -3 -9 2 -12 12 -6 14 -5
15 5 6 7 -7 10 -15 7 -18z m389 19 c-3 -3 -12 -4 -19 -1 -8 3 -5 6 6 6 11 1
17 -2 13 -5z m-661 -11 c-2 -3 -6 -3 -9 -1 -3 2 -15 -6 -28 -17 l-24 -20 18
21 c9 11 24 21 32 21 8 0 13 -2 11 -4z m105 -10 c13 -16 12 -17 -3 -4 -10 7
-18 15 -18 17 0 8 8 3 21 -13z m59 13 c0 -2 -8 -10 -17 -17 -16 -13 -17 -12
-4 4 13 16 21 21 21 13z m240 -11 c0 -2 -6 -5 -13 -8 -8 -3 -14 1 -14 8 0 7 6
11 14 8 7 -3 13 -6 13 -8z m309 -8 c0 -9 -2 -9 -5 0 -3 7 -13 9 -22 6 -14 -4
-14 -3 -2 5 16 12 30 7 29 -11z m66 13 c-3 -5 -12 -10 -18 -10 -7 0 -6 4 3 10
19 12 23 12 15 0z m-135 -4 c0 -2 -7 -7 -16 -10 -8 -3 -12 -2 -9 4 6 10 25 14
25 6z m-556 -14 c3 -5 -1 -9 -9 -9 -8 0 -12 4 -9 9 3 4 7 8 9 8 2 0 6 -4 9 -8z
m-110 -23 c-10 -12 -18 -24 -17 -28 1 -3 0 -8 -2 -9 -2 -2 -3 3 -1 11 2 16 25
47 34 47 3 0 -3 -9 -14 -21z m266 6 c0 -12 -19 -12 -23 0 -4 9 -1 12 9 8 7 -3
14 -7 14 -8z m98 6 c15 12 15 11 -1 -8 -14 -16 -15 -22 -5 -26 7 -3 3 -4 -9
-4 -12 1 -19 5 -16 10 2 4 -1 16 -9 25 -12 15 -11 16 5 3 14 -11 20 -11 35 0z
m265 -16 c4 -8 1 -17 -5 -21 -7 -5 -8 -2 -3 6 6 10 4 12 -10 6 -15 -5 -16 -4
-5 9 15 19 16 19 23 0z m111 6 c3 -5 -1 -11 -9 -14 -9 -4 -12 -1 -8 9 6 16 10
17 17 5z m-504 -5 c0 -2 -8 -10 -17 -17 -16 -13 -17 -12 -4 4 13 16 21 21 21
13z m243 -9 c3 -8 -1 -14 -8 -14 -7 0 -11 6 -8 14 3 7 6 13 8 13 2 0 5 -6 8
-13z m212 3 c3 -6 -1 -7 -9 -4 -18 7 -21 14 -7 14 6 0 13 -4 16 -10z m-540
-18 c-3 -3 -11 0 -18 7 -9 10 -8 11 6 5 10 -3 15 -9 12 -12z m39 10 c3 -5 -1
-9 -9 -9 -8 0 -12 4 -9 9 3 4 7 8 9 8 2 0 6 -4 9 -8z m121 -10 c-3 -3 -11 0
-18 7 -9 10 -8 11 6 5 10 -3 15 -9 12 -12z m-58 -11 c-1 -15 -4 -17 -14 -9
-15 12 -17 22 -3 13 6 -3 10 -1 10 4 0 6 2 11 4 11 3 0 4 -9 3 -19z m317 6
c-3 -8 -11 -14 -19 -14 -21 0 -19 15 3 20 9 3 18 5 19 6 1 0 0 -5 -3 -12z
m251 -5 c-3 -3 -11 0 -18 7 -9 10 -8 11 6 5 10 -3 15 -9 12 -12z m-745 -17
c14 -19 14 -19 -2 -6 -10 7 -18 18 -18 24 0 6 1 8 3 6 1 -2 9 -13 17 -24z m35
8 c-1 -10 2 -25 8 -33 9 -12 9 -13 -3 -3 -16 15 -24 53 -11 53 5 0 8 -8 6 -17z
m325 7 c0 -5 -4 -10 -10 -10 -5 0 -10 5 -10 10 0 6 5 10 10 10 6 0 10 -4 10
-10z m163 -2 c-6 -7 -9 -21 -8 -31 2 -9 0 -15 -5 -12 -13 8 1 55 17 55 3 0 1
-6 -4 -12z m120 -7 c3 -13 0 -18 -7 -15 -7 3 -13 11 -13 19 0 22 14 18 20 -4z
m-403 -5 c0 -2 -7 -7 -16 -10 -8 -3 -12 -2 -9 4 6 10 25 14 25 6z m42 -3 c-10
-4 -9 -10 5 -27 9 -11 11 -16 4 -9 -9 8 -20 9 -31 3 -12 -6 -17 -5 -17 5 0 8
7 11 16 7 13 -5 14 -3 4 9 -10 12 -8 15 10 16 12 0 16 -1 9 -4z m155 -13 c-6
-8 -12 -16 -13 -18 -1 -1 -4 5 -6 15 -4 13 0 19 13 19 14 0 16 -3 6 -16z
m-442 -28 c-3 -3 3 -15 12 -26 18 -21 18 -21 -5 -2 -12 11 -20 21 -17 24 3 3
-3 15 -12 26 -18 21 -18 21 5 2 12 -11 20 -21 17 -24z m141 23 c-1 -8 -5 -17
-8 -21 -5 -4 -4 16 1 34 3 9 9 -1 7 -13z m544 11 c0 -2 -8 -10 -17 -17 -16
-13 -17 -12 -4 4 13 16 21 21 21 13z m-720 -31 c14 -19 14 -19 -2 -6 -10 7
-18 18 -18 24 0 6 1 8 3 6 1 -2 9 -13 17 -24z m813 10 c4 -8 1 -17 -5 -21 -7
-5 -8 -2 -3 6 6 9 2 10 -16 5 -23 -7 -24 -7 -4 9 25 19 22 19 28 1z m-693 1
c0 -2 -8 -10 -17 -17 -16 -13 -17 -12 -4 4 13 16 21 21 21 13z m-45 -24 c-3
-3 -11 0 -18 7 -9 10 -8 11 6 5 10 -3 15 -9 12 -12z m62 -5 c0 -8 -6 -14 -14
-14 -9 0 -10 4 -2 14 6 7 12 13 14 13 1 0 2 -6 2 -13z m100 7 c-3 -3 -12 -4
-19 -1 -8 3 -5 6 6 6 11 1 17 -2 13 -5z m153 -9 c0 -2 -6 -5 -13 -8 -8 -3 -14
1 -14 8 0 7 6 11 14 8 7 -3 13 -6 13 -8z m66 -4 c0 -14 -4 -17 -16 -12 -8 5
-21 6 -27 4 -7 -3 -13 0 -13 6 0 5 9 8 20 6 11 -2 22 0 25 6 9 13 11 11 11
-10z m74 7 c8 2 12 2 9 -2 -13 -14 -48 -14 -53 0 -4 11 -1 12 12 6 9 -5 24 -7
32 -4z m-279 -21 c-10 -9 -11 -8 -5 6 3 10 9 15 12 12 3 -3 0 -11 -7 -18z m43
7 c3 -8 2 -12 -4 -9 -6 3 -10 10 -10 16 0 14 7 11 14 -7z m439 -1 c3 -5 -8 -8
-23 -8 -15 0 -26 3 -23 8 2 4 13 7 23 7 10 0 21 -3 23 -7z m-622 -20 c13 -16
12 -17 -3 -4 -17 13 -22 21 -14 21 2 0 10 -8 17 -17z m640 -6 c-10 -9 -11 -8
-5 6 3 10 9 15 12 12 3 -3 0 -11 -7 -18z m85 -10 c1 -9 -2 -15 -7 -11 -5 3 -7
9 -4 14 3 4 0 11 -5 13 -6 3 -5 4 1 3 7 -1 13 -10 15 -19z m-761 4 c-3 -2 1
-11 7 -20 12 -15 11 -15 -7 0 -11 9 -33 15 -48 14 -15 -1 -29 1 -32 4 -2 4 16
7 40 7 24 0 42 -2 40 -5z m202 3 c-8 -8 -48 -13 -43 -6 2 4 14 8 26 9 12 1 20
0 17 -3z m180 -9 c0 -8 -4 -12 -9 -9 -5 3 -6 10 -3 15 9 13 12 11 12 -6z m223
11 c0 -3 -4 -8 -10 -11 -5 -3 -10 -1 -10 4 0 6 5 11 10 11 6 0 10 -2 10 -4z
m-479 -23 c13 -16 12 -17 -3 -4 -17 13 -22 21 -14 21 2 0 10 -8 17 -17z m232
4 c3 -8 -1 -14 -8 -14 -7 0 -11 6 -8 14 3 7 6 13 8 13 2 0 5 -6 8 -13z m121 4
c3 -5 -1 -11 -9 -14 -9 -4 -12 -1 -8 9 6 16 10 17 17 5z m159 -6 c-3 -9 -8
-14 -10 -11 -3 3 -2 9 2 15 9 16 15 13 8 -4z m88 0 c5 4 6 -2 2 -11 -5 -13 -3
-15 7 -9 9 6 11 4 5 -5 -6 -10 -11 -10 -20 3 -7 9 -15 14 -19 10 -4 -4 -4 1 0
12 5 11 9 14 12 7 2 -7 8 -10 13 -7z m-676 -5 c-3 -5 -12 -10 -18 -10 -7 0 -6
4 3 10 19 12 23 12 15 0z m152 -5 c0 -8 -4 -12 -9 -9 -5 3 -6 10 -3 15 9 13
12 11 12 -6z m40 -4 c-10 -12 -9 -14 4 -9 9 4 16 1 16 -7 0 -10 -5 -11 -17 -5
-11 6 -22 5 -31 -3 -7 -7 -5 -2 4 9 14 17 15 23 5 27 -7 3 -3 4 9 4 18 -1 20
-4 10 -16z m-127 -6 c0 -1 -6 -7 -13 -13 -10 -8 -13 -6 -13 7 0 11 6 17 13 14
7 -3 13 -6 13 -8z m283 0 c-3 -9 -8 -14 -10 -11 -3 3 -2 9 2 15 9 16 15 13 8
-4z m287 0 c0 -11 -29 -11 -33 -1 -4 10 1 12 14 9 10 -3 19 -7 19 -8z m-240
-5 c0 -5 -5 -10 -11 -10 -5 0 -7 5 -4 10 3 6 8 10 11 10 2 0 4 -4 4 -10z m340
6 c0 -3 -4 -8 -10 -11 -5 -3 -10 -1 -10 4 0 6 5 11 10 11 6 0 10 -2 10 -4z
m-809 -53 c13 -16 12 -17 -3 -4 -17 13 -22 21 -14 21 2 0 10 -8 17 -17z m109
-8 c14 -19 14 -19 -2 -6 -10 7 -18 18 -18 24 0 6 1 8 3 6 1 -2 9 -13 17 -24z
m30 19 c0 -8 -19 -13 -24 -6 -3 5 1 9 9 9 8 0 15 -2 15 -3z m612 -20 c9 -18 8
-18 -5 -2 -8 10 -16 15 -19 12 -4 -3 -9 -1 -12 4 -3 6 1 9 10 8 9 -1 21 -11
26 -22z m72 10 c3 -8 2 -12 -4 -9 -6 3 -10 10 -10 16 0 14 7 11 14 -7z m-200
-2 c2 -4 -4 -8 -14 -8 -10 0 -16 4 -14 8 3 4 9 8 14 8 5 0 11 -4 14 -8z m-464
-6 c0 -2 -8 -10 -17 -17 -16 -13 -17 -12 -4 4 13 16 21 21 21 13z m-110 -10
c0 -2 -8 -10 -17 -17 -16 -13 -17 -12 -4 4 13 16 21 21 21 13z m41 -13 c13
-16 12 -17 -3 -4 -17 13 -22 21 -14 21 2 0 10 -8 17 -17z m-24 -16 c0 -8 -6
-14 -14 -14 -9 0 -10 4 -2 14 6 7 12 13 14 13 1 0 2 -6 2 -13z m793 9 c0 -2
-7 -7 -16 -10 -8 -3 -12 -2 -9 4 6 10 25 14 25 6z m-835 -24 c-3 -3 -11 0 -18
7 -9 10 -8 11 6 5 10 -3 15 -9 12 -12z m90 8 c-3 -5 -14 -10 -23 -9 -14 0 -13
2 3 9 27 11 27 11 20 0z m668 -20 c3 -11 2 -18 -3 -15 -4 3 -10 14 -13 25 -3
11 -2 18 3 15 4 -3 10 -14 13 -25z m51 -10 c-6 -5 -24 21 -24 34 0 6 6 1 14
-10 8 -10 12 -21 10 -24z m-717 4 c-3 -3 -12 -4 -19 -1 -8 3 -5 6 6 6 11 1 17
-2 13 -5z m753 -12 c0 -12 -22 -32 -34 -32 -6 0 -3 5 7 11 9 6 15 14 12 20 -4
5 -1 9 4 9 6 0 11 -4 11 -8z m-822 -27 c-3 -3 -9 2 -12 12 -6 14 -5 15 5 6 7
-7 10 -15 7 -18z m817 -25 c3 -6 -1 -7 -9 -4 -18 7 -21 14 -7 14 6 0 13 -4 16
-10z m62 -92 c-3 -8 -6 -5 -6 6 -1 11 2 17 5 13 3 -3 4 -12 1 -19z"/>
</g>
</svg>
