<svg width="468" height="543" viewBox="0 0 468 543" fill="none" xmlns="http://www.w3.org/2000/svg">
    <g opacity="0.5">
        <path fill-rule="evenodd" clip-rule="evenodd"
            d="M243.127 485.437L201.815 379.185L187.465 342.759L274.778 250.2L267.692 231.834C264.598 230.467 261.806 228.528 259.444 226.106C249.645 216.329 250.627 205.206 254.049 196.537L252.668 192.96L165.032 285.863L87.1835 88.3095L233.635 143.673L199.202 54.5105L64.3984 4.03136C64.3984 4.03136 92.2311 14.4525 53.8929 55.0949C17.1035 94.0953 6.03125 69.0691 5.19524 66.9843L188.957 542.862C188.957 542.862 179.319 512.751 201.414 489.328C223.539 465.873 243.127 485.437 243.127 485.437ZM286.805 87.3074L306.112 136.304L335.226 105.441L286.805 87.3074ZM391.459 126.506L338.034 183.141L376.399 197.655L477.881 236.574C477.881 236.574 454.989 220.493 475.007 199.273C495.033 178.042 532.05 179.149 532.05 179.149L391.459 126.506Z"
            fill="url(#paint0_linear_127_305)" />
        <path
            d="M35.2224 6.20896C42.939 13.9079 42.6112 27.1279 34.4905 35.7368C26.3697 44.3456 13.531 45.0833 5.81447 37.3844C-1.90205 29.6855 -1.57433 16.4654 6.54645 7.85657C14.6672 -0.752285 27.5059 -1.48995 35.2224 6.20896Z"
            fill="url(#paint1_linear_127_305)" />
    </g>
    <defs>
        <linearGradient id="paint0_linear_127_305" x1="208.353" y1="522.3" x2="589.303" y2="140.479"
            gradientUnits="userSpaceOnUse">
            <stop stop-color="#B197FC" />
            <stop offset="0.586458" stop-color="#FF91ED" stop-opacity="0.59" />
            <stop offset="1" stop-color="#C7B4FF" stop-opacity="0.5" />
        </linearGradient>
        <linearGradient id="paint1_linear_127_305" x1="208.353" y1="522.3" x2="589.303" y2="140.479"
            gradientUnits="userSpaceOnUse">
            <stop stop-color="#B197FC" />
            <stop offset="0.586458" stop-color="#FF91ED" stop-opacity="0.59" />
            <stop offset="1" stop-color="#C7B4FF" stop-opacity="0.5" />
        </linearGradient>
    </defs>
</svg>