<svg width="560" height="775" viewBox="0 0 560 775" fill="none" xmlns="http://www.w3.org/2000/svg">
    <g opacity="0.5">
        <path fill-rule="evenodd" clip-rule="evenodd"
            d="M335.124 693.716L278.754 541.963L259.162 489.934L385.126 360.39L375.461 334.161C371.097 332.153 367.175 329.34 363.873 325.85C350.17 311.758 351.804 295.985 356.849 283.75L354.965 278.641L228.535 408.666L122.25 126.49L329.002 208.25L282.03 80.91L91.712 6.33517C91.712 6.33517 131.007 21.7309 75.6968 78.6128C22.6213 133.197 7.43861 97.4244 6.29645 94.4463L256.975 774.086C256.975 774.086 243.937 731.125 275.814 698.342C307.732 665.516 335.124 693.716 335.124 693.716ZM405.709 129.363L432.068 199.347L474.07 156.151L405.709 129.363ZM553.46 187.271L476.386 266.537L530.546 287.97L673.8 345.414C673.8 345.414 641.643 322.088 670.522 292.389C699.414 262.675 751.949 265.043 751.949 265.043L553.46 187.271Z"
            fill="url(#paint0_linear_27_669)" />
        <path
            d="M50.239 8.79924C61.0299 19.8968 60.2801 38.6605 48.5643 50.7092C36.8486 62.7579 18.6035 63.529 7.81265 52.4315C-2.97816 41.334 -2.22835 22.5703 9.48737 10.5216C21.2031 -1.52716 39.4482 -2.29826 50.239 8.79924Z"
            fill="url(#paint1_linear_27_669)" />
    </g>
    <defs>
        <linearGradient id="paint0_linear_27_669" x1="284.957" y1="745.309" x2="834.073" y2="211.368"
            gradientUnits="userSpaceOnUse">
            <stop stop-color="#B197FC" />
            <stop offset="0.586458" stop-color="#FF91ED" stop-opacity="0.59" />
            <stop offset="1" stop-color="#C7B4FF" stop-opacity="0.5" />
        </linearGradient>
        <linearGradient id="paint1_linear_27_669" x1="284.957" y1="745.309" x2="834.073" y2="211.368"
            gradientUnits="userSpaceOnUse">
            <stop stop-color="#B197FC" />
            <stop offset="0.586458" stop-color="#FF91ED" stop-opacity="0.59" />
            <stop offset="1" stop-color="#C7B4FF" stop-opacity="0.5" />
        </linearGradient>
    </defs>
</svg>